<svg width="32" height="32" viewBox="0 0 32 32" fill="none" xmlns="http://www.w3.org/2000/svg">
<path d="M26 12L29.464 14L28.464 15.732L25 13.732L26 12Z" fill="#FFB531"/>
<path d="M26 8H30V10H26V8Z" fill="#FFB531"/>
<path d="M6.99989 13.732L3.53589 15.732L2.53589 14L5.99989 12L6.99989 13.732Z" fill="#FFB531"/>
<path d="M26 30H24V25C23.9984 23.6744 23.4711 22.4036 22.5338 21.4662C21.5964 20.5289 20.3256 20.0016 19 20H13C11.6744 20.0016 10.4036 20.5289 9.46622 21.4662C8.52888 22.4036 8.00159 23.6744 8 25V30H6V25C6.00212 23.1441 6.7403 21.3649 8.05259 20.0526C9.36489 18.7403 11.1441 18.0021 13 18H19C20.8559 18.0021 22.6351 18.7403 23.9474 20.0526C25.2597 21.3649 25.9979 23.1441 26 25V30Z" fill="#FFB531"/>
<path d="M16 4C16.9889 4 17.9556 4.29324 18.7779 4.84265C19.6001 5.39206 20.241 6.17295 20.6194 7.08658C20.9978 8.00021 21.0969 9.00555 20.9039 9.97545C20.711 10.9454 20.2348 11.8363 19.5355 12.5355C18.8363 13.2348 17.9454 13.711 16.9755 13.9039C16.0056 14.0969 15.0002 13.9978 14.0866 13.6194C13.173 13.241 12.3921 12.6001 11.8427 11.7779C11.2932 10.9556 11 9.98891 11 9C11 7.67392 11.5268 6.40215 12.4645 5.46447C13.4022 4.52678 14.6739 4 16 4ZM16 2C14.6155 2 13.2622 2.41054 12.111 3.17971C10.9599 3.94888 10.0627 5.04213 9.53285 6.32122C9.00303 7.6003 8.86441 9.00776 9.13451 10.3656C9.4046 11.7235 10.0713 12.9708 11.0503 13.9497C12.0292 14.9287 13.2765 15.5954 14.6344 15.8655C15.9922 16.1356 17.3997 15.997 18.6788 15.4672C19.9579 14.9373 21.0511 14.0401 21.8203 12.889C22.5895 11.7378 23 10.3845 23 9C23 7.14348 22.2625 5.36301 20.9497 4.05025C19.637 2.7375 17.8565 2 16 2Z" fill="#FFB531"/>
<path d="M25 4.26801L28.464 2.26801L29.464 4.00001L26 6.00001L25 4.26801Z" fill="#FFB531"/>
<path d="M2 8H6V10H2V8Z" fill="#FFB531"/>
<path d="M5.99989 6.00001L2.53589 4.00001L3.53589 2.26801L6.99989 4.26801L5.99989 6.00001Z" fill="#FFB531"/>
</svg>
