<svg width="410" height="344" viewBox="0 0 410 344" fill="none" xmlns="http://www.w3.org/2000/svg">
<circle cx="300" cy="234" r="109" stroke="#DCE0DE" stroke-dasharray="20 10"/>
<rect x="130" width="220" height="280" rx="16" fill="#FEEBCD"/>
<g filter="url(#filter0_d)">
<rect x="20" y="50" width="280" height="180" rx="8" fill="white"/>
<path d="M45.84 78.11C45.84 78.31 45.8267 78.49 45.8 78.65H41.75C41.7833 79.05 41.9233 79.3633 42.17 79.59C42.4167 79.8167 42.72 79.93 43.08 79.93C43.6 79.93 43.97 79.7067 44.19 79.26H45.7C45.54 79.7933 45.2333 80.2333 44.78 80.58C44.3267 80.92 43.77 81.09 43.11 81.09C42.5767 81.09 42.0967 80.9733 41.67 80.74C41.25 80.5 40.92 80.1633 40.68 79.73C40.4467 79.2967 40.33 78.7967 40.33 78.23C40.33 77.6567 40.4467 77.1533 40.68 76.72C40.9133 76.2867 41.24 75.9533 41.66 75.72C42.08 75.4867 42.5633 75.37 43.11 75.37C43.6367 75.37 44.1067 75.4833 44.52 75.71C44.94 75.9367 45.2633 76.26 45.49 76.68C45.7233 77.0933 45.84 77.57 45.84 78.11ZM44.39 77.71C44.3833 77.35 44.2533 77.0633 44 76.85C43.7467 76.63 43.4367 76.52 43.07 76.52C42.7233 76.52 42.43 76.6267 42.19 76.84C41.9567 77.0467 41.8133 77.3367 41.76 77.71H44.39ZM49.9219 81L48.7819 79.28L47.7719 81H46.2719L48.0819 78.22L46.2519 75.46H47.8319L48.9619 77.17L49.9819 75.46H51.4819L49.6619 78.22L51.5019 81H49.9219ZM53.6623 76.26C53.8423 76.0067 54.0889 75.7967 54.4023 75.63C54.7223 75.4567 55.0856 75.37 55.4923 75.37C55.9656 75.37 56.3923 75.4867 56.7723 75.72C57.1589 75.9533 57.4623 76.2867 57.6823 76.72C57.9089 77.1467 58.0223 77.6433 58.0223 78.21C58.0223 78.7767 57.9089 79.28 57.6823 79.72C57.4623 80.1533 57.1589 80.49 56.7723 80.73C56.3923 80.97 55.9656 81.09 55.4923 81.09C55.0856 81.09 54.7256 81.0067 54.4123 80.84C54.1056 80.6733 53.8556 80.4633 53.6623 80.21V83.64H52.2623V75.46H53.6623V76.26ZM56.5923 78.21C56.5923 77.8767 56.5223 77.59 56.3823 77.35C56.2489 77.1033 56.0689 76.9167 55.8423 76.79C55.6223 76.6633 55.3823 76.6 55.1223 76.6C54.8689 76.6 54.6289 76.6667 54.4023 76.8C54.1823 76.9267 54.0023 77.1133 53.8623 77.36C53.7289 77.6067 53.6623 77.8967 53.6623 78.23C53.6623 78.5633 53.7289 78.8533 53.8623 79.1C54.0023 79.3467 54.1823 79.5367 54.4023 79.67C54.6289 79.7967 54.8689 79.86 55.1223 79.86C55.3823 79.86 55.6223 79.7933 55.8423 79.66C56.0689 79.5267 56.2489 79.3367 56.3823 79.09C56.5223 78.8433 56.5923 78.55 56.5923 78.21ZM60.4396 73.6V81H59.0396V73.6H60.4396ZM64.2828 81.09C63.7495 81.09 63.2695 80.9733 62.8428 80.74C62.4161 80.5 62.0795 80.1633 61.8328 79.73C61.5928 79.2967 61.4728 78.7967 61.4728 78.23C61.4728 77.6633 61.5961 77.1633 61.8428 76.73C62.0961 76.2967 62.4395 75.9633 62.8728 75.73C63.3061 75.49 63.7895 75.37 64.3228 75.37C64.8561 75.37 65.3395 75.49 65.7728 75.73C66.2061 75.9633 66.5461 76.2967 66.7928 76.73C67.0461 77.1633 67.1728 77.6633 67.1728 78.23C67.1728 78.7967 67.0428 79.2967 66.7828 79.73C66.5295 80.1633 66.1828 80.5 65.7428 80.74C65.3095 80.9733 64.8228 81.09 64.2828 81.09ZM64.2828 79.87C64.5361 79.87 64.7728 79.81 64.9928 79.69C65.2195 79.5633 65.3995 79.3767 65.5328 79.13C65.6661 78.8833 65.7328 78.5833 65.7328 78.23C65.7328 77.7033 65.5928 77.3 65.3128 77.02C65.0395 76.7333 64.7028 76.59 64.3028 76.59C63.9028 76.59 63.5661 76.7333 63.2928 77.02C63.0261 77.3 62.8928 77.7033 62.8928 78.23C62.8928 78.7567 63.0228 79.1633 63.2828 79.45C63.5495 79.73 63.8828 79.87 64.2828 79.87ZM69.5998 76.32C69.7798 76.0267 70.0131 75.7967 70.2998 75.63C70.5931 75.4633 70.9264 75.38 71.2998 75.38V76.85H70.9298C70.4898 76.85 70.1564 76.9533 69.9298 77.16C69.7098 77.3667 69.5998 77.7267 69.5998 78.24V81H68.1998V75.46H69.5998V76.32ZM77.3927 78.11C77.3927 78.31 77.3794 78.49 77.3527 78.65H73.3027C73.3361 79.05 73.4761 79.3633 73.7227 79.59C73.9694 79.8167 74.2727 79.93 74.6327 79.93C75.1527 79.93 75.5227 79.7067 75.7427 79.26H77.2527C77.0927 79.7933 76.7861 80.2333 76.3327 80.58C75.8794 80.92 75.3227 81.09 74.6627 81.09C74.1294 81.09 73.6494 80.9733 73.2227 80.74C72.8027 80.5 72.4727 80.1633 72.2327 79.73C71.9994 79.2967 71.8827 78.7967 71.8827 78.23C71.8827 77.6567 71.9994 77.1533 72.2327 76.72C72.4661 76.2867 72.7927 75.9533 73.2127 75.72C73.6327 75.4867 74.1161 75.37 74.6627 75.37C75.1894 75.37 75.6594 75.4833 76.0727 75.71C76.4927 75.9367 76.8161 76.26 77.0427 76.68C77.2761 77.0933 77.3927 77.57 77.3927 78.11ZM75.9427 77.71C75.9361 77.35 75.8061 77.0633 75.5527 76.85C75.2994 76.63 74.9894 76.52 74.6227 76.52C74.2761 76.52 73.9827 76.6267 73.7427 76.84C73.5094 77.0467 73.3661 77.3367 73.3127 77.71H75.9427Z" fill="#0D3642"/>
<rect x="40" y="88" width="100" height="14" rx="2" fill="#F5F5F5"/>
<path d="M46.752 97.042C46.476 97.042 46.232 96.994 46.02 96.898C45.812 96.802 45.648 96.668 45.528 96.496C45.408 96.324 45.344 96.132 45.336 95.92H45.78C45.8 96.124 45.89 96.304 46.05 96.46C46.21 96.612 46.444 96.688 46.752 96.688C47.036 96.688 47.26 96.616 47.424 96.472C47.592 96.324 47.676 96.138 47.676 95.914C47.676 95.734 47.63 95.59 47.538 95.482C47.446 95.37 47.332 95.288 47.196 95.236C47.06 95.18 46.872 95.12 46.632 95.056C46.352 94.98 46.13 94.906 45.966 94.834C45.802 94.762 45.662 94.65 45.546 94.498C45.43 94.346 45.372 94.14 45.372 93.88C45.372 93.664 45.428 93.472 45.54 93.304C45.652 93.132 45.81 92.998 46.014 92.902C46.218 92.806 46.452 92.758 46.716 92.758C47.104 92.758 47.416 92.854 47.652 93.046C47.892 93.234 48.03 93.478 48.066 93.778H47.61C47.582 93.606 47.488 93.454 47.328 93.322C47.168 93.186 46.952 93.118 46.68 93.118C46.428 93.118 46.218 93.186 46.05 93.322C45.882 93.454 45.798 93.636 45.798 93.868C45.798 94.044 45.844 94.186 45.936 94.294C46.028 94.402 46.142 94.484 46.278 94.54C46.418 94.596 46.606 94.656 46.842 94.72C47.114 94.796 47.334 94.872 47.502 94.948C47.67 95.02 47.812 95.132 47.928 95.284C48.044 95.436 48.102 95.64 48.102 95.896C48.102 96.092 48.05 96.278 47.946 96.454C47.842 96.63 47.688 96.772 47.484 96.88C47.28 96.988 47.036 97.042 46.752 97.042ZM50.3476 97.048C50.0396 97.048 49.7616 96.98 49.5136 96.844C49.2696 96.704 49.0756 96.508 48.9316 96.256C48.7916 96 48.7216 95.702 48.7216 95.362C48.7216 95.022 48.7936 94.726 48.9376 94.474C49.0816 94.218 49.2776 94.022 49.5256 93.886C49.7736 93.746 50.0516 93.676 50.3596 93.676C50.6676 93.676 50.9456 93.746 51.1936 93.886C51.4456 94.022 51.6416 94.218 51.7816 94.474C51.9256 94.726 51.9976 95.022 51.9976 95.362C51.9976 95.698 51.9256 95.994 51.7816 96.25C51.6376 96.506 51.4396 96.704 51.1876 96.844C50.9356 96.98 50.6556 97.048 50.3476 97.048ZM50.3476 96.682C50.5636 96.682 50.7636 96.634 50.9476 96.538C51.1316 96.438 51.2796 96.29 51.3916 96.094C51.5076 95.894 51.5656 95.65 51.5656 95.362C51.5656 95.074 51.5096 94.832 51.3976 94.636C51.2856 94.436 51.1376 94.288 50.9536 94.192C50.7696 94.092 50.5696 94.042 50.3536 94.042C50.1376 94.042 49.9376 94.092 49.7536 94.192C49.5696 94.288 49.4216 94.436 49.3096 94.636C49.2016 94.832 49.1476 95.074 49.1476 95.362C49.1476 95.65 49.2016 95.894 49.3096 96.094C49.4216 96.29 49.5676 96.438 49.7476 96.538C49.9316 96.634 50.1316 96.682 50.3476 96.682ZM53.1832 94.306C53.2752 94.102 53.4152 93.944 53.6032 93.832C53.7952 93.72 54.0292 93.664 54.3052 93.664V94.102H54.1912C53.8872 94.102 53.6432 94.184 53.4592 94.348C53.2752 94.512 53.1832 94.786 53.1832 95.17V97H52.7632V93.724H53.1832V94.306ZM55.483 94.078V96.112C55.483 96.312 55.521 96.45 55.597 96.526C55.673 96.602 55.807 96.64 55.999 96.64H56.383V97H55.933C55.637 97 55.417 96.932 55.273 96.796C55.129 96.656 55.057 96.428 55.057 96.112V94.078H54.601V93.724H55.057V92.902H55.483V93.724H56.383V94.078H55.483ZM59.1422 94.306C59.2342 94.102 59.3742 93.944 59.5622 93.832C59.7542 93.72 59.9882 93.664 60.2642 93.664V94.102H60.1502C59.8462 94.102 59.6022 94.184 59.4182 94.348C59.2342 94.512 59.1422 94.786 59.1422 95.17V97H58.7222V93.724H59.1422V94.306ZM63.86 95.194C63.86 95.338 63.856 95.448 63.848 95.524H61.13C61.142 95.772 61.202 95.984 61.31 96.16C61.418 96.336 61.56 96.47 61.736 96.562C61.912 96.65 62.104 96.694 62.312 96.694C62.584 96.694 62.812 96.628 62.996 96.496C63.184 96.364 63.308 96.186 63.368 95.962H63.812C63.732 96.282 63.56 96.544 63.296 96.748C63.036 96.948 62.708 97.048 62.312 97.048C62.004 97.048 61.728 96.98 61.484 96.844C61.24 96.704 61.048 96.508 60.908 96.256C60.772 96 60.704 95.702 60.704 95.362C60.704 95.022 60.772 94.724 60.908 94.468C61.044 94.212 61.234 94.016 61.478 93.88C61.722 93.744 62 93.676 62.312 93.676C62.624 93.676 62.896 93.744 63.128 93.88C63.364 94.016 63.544 94.2 63.668 94.432C63.796 94.66 63.86 94.914 63.86 95.194ZM63.434 95.182C63.438 94.938 63.388 94.73 63.284 94.558C63.184 94.386 63.046 94.256 62.87 94.168C62.694 94.08 62.502 94.036 62.294 94.036C61.982 94.036 61.716 94.136 61.496 94.336C61.276 94.536 61.154 94.818 61.13 95.182H63.434ZM65.7564 97.048C65.3804 97.048 65.0724 96.962 64.8324 96.79C64.5964 96.614 64.4644 96.376 64.4364 96.076H64.8684C64.8884 96.26 64.9744 96.41 65.1264 96.526C65.2824 96.638 65.4904 96.694 65.7504 96.694C65.9784 96.694 66.1564 96.64 66.2844 96.532C66.4164 96.424 66.4824 96.29 66.4824 96.13C66.4824 96.018 66.4464 95.926 66.3744 95.854C66.3024 95.782 66.2104 95.726 66.0984 95.686C65.9904 95.642 65.8424 95.596 65.6544 95.548C65.4104 95.484 65.2124 95.42 65.0604 95.356C64.9084 95.292 64.7784 95.198 64.6704 95.074C64.5664 94.946 64.5144 94.776 64.5144 94.564C64.5144 94.404 64.5624 94.256 64.6584 94.12C64.7544 93.984 64.8904 93.876 65.0664 93.796C65.2424 93.716 65.4424 93.676 65.6664 93.676C66.0184 93.676 66.3024 93.766 66.5184 93.946C66.7344 94.122 66.8504 94.366 66.8664 94.678H66.4464C66.4344 94.486 66.3584 94.332 66.2184 94.216C66.0824 94.096 65.8944 94.036 65.6544 94.036C65.4424 94.036 65.2704 94.086 65.1384 94.186C65.0064 94.286 64.9404 94.41 64.9404 94.558C64.9404 94.686 64.9784 94.792 65.0544 94.876C65.1344 94.956 65.2324 95.02 65.3484 95.068C65.4644 95.112 65.6204 95.162 65.8164 95.218C66.0524 95.282 66.2404 95.344 66.3804 95.404C66.5204 95.464 66.6404 95.552 66.7404 95.668C66.8404 95.784 66.8924 95.938 66.8964 96.13C66.8964 96.306 66.8484 96.464 66.7524 96.604C66.6564 96.74 66.5224 96.848 66.3504 96.928C66.1784 97.008 65.9804 97.048 65.7564 97.048ZM70.525 93.724V97H70.105V96.424C70.009 96.628 69.861 96.784 69.661 96.892C69.461 97 69.237 97.054 68.989 97.054C68.597 97.054 68.277 96.934 68.029 96.694C67.781 96.45 67.657 96.098 67.657 95.638V93.724H68.071V95.59C68.071 95.946 68.159 96.218 68.335 96.406C68.515 96.594 68.759 96.688 69.067 96.688C69.383 96.688 69.635 96.588 69.823 96.388C70.011 96.188 70.105 95.894 70.105 95.506V93.724H70.525ZM71.9039 92.56V97H71.4839V92.56H71.9039ZM73.401 94.078V96.112C73.401 96.312 73.439 96.45 73.515 96.526C73.591 96.602 73.725 96.64 73.917 96.64H74.301V97H73.851C73.555 97 73.335 96.932 73.191 96.796C73.047 96.656 72.975 96.428 72.975 96.112V94.078H72.519V93.724H72.975V92.902H73.401V93.724H74.301V94.078H73.401ZM76.1217 97.048C75.7457 97.048 75.4377 96.962 75.1977 96.79C74.9617 96.614 74.8297 96.376 74.8017 96.076H75.2337C75.2537 96.26 75.3397 96.41 75.4917 96.526C75.6477 96.638 75.8557 96.694 76.1157 96.694C76.3437 96.694 76.5217 96.64 76.6497 96.532C76.7817 96.424 76.8477 96.29 76.8477 96.13C76.8477 96.018 76.8117 95.926 76.7397 95.854C76.6677 95.782 76.5757 95.726 76.4637 95.686C76.3557 95.642 76.2077 95.596 76.0197 95.548C75.7757 95.484 75.5777 95.42 75.4257 95.356C75.2737 95.292 75.1437 95.198 75.0357 95.074C74.9317 94.946 74.8797 94.776 74.8797 94.564C74.8797 94.404 74.9277 94.256 75.0237 94.12C75.1197 93.984 75.2557 93.876 75.4317 93.796C75.6077 93.716 75.8077 93.676 76.0317 93.676C76.3837 93.676 76.6677 93.766 76.8837 93.946C77.0997 94.122 77.2157 94.366 77.2317 94.678H76.8117C76.7997 94.486 76.7237 94.332 76.5837 94.216C76.4477 94.096 76.2597 94.036 76.0197 94.036C75.8077 94.036 75.6357 94.086 75.5037 94.186C75.3717 94.286 75.3057 94.41 75.3057 94.558C75.3057 94.686 75.3437 94.792 75.4197 94.876C75.4997 94.956 75.5977 95.02 75.7137 95.068C75.8297 95.112 75.9857 95.162 76.1817 95.218C76.4177 95.282 76.6057 95.344 76.7457 95.404C76.8857 95.464 77.0057 95.552 77.1057 95.668C77.2057 95.784 77.2577 95.938 77.2617 96.13C77.2617 96.306 77.2137 96.464 77.1177 96.604C77.0217 96.74 76.8877 96.848 76.7157 96.928C76.5437 97.008 76.3457 97.048 76.1217 97.048ZM80.1128 94.45C80.2208 94.222 80.3868 94.036 80.6108 93.892C80.8388 93.748 81.1068 93.676 81.4148 93.676C81.7148 93.676 81.9828 93.746 82.2188 93.886C82.4548 94.022 82.6388 94.218 82.7708 94.474C82.9068 94.726 82.9748 95.02 82.9748 95.356C82.9748 95.692 82.9068 95.988 82.7708 96.244C82.6388 96.5 82.4528 96.698 82.2128 96.838C81.9768 96.978 81.7108 97.048 81.4148 97.048C81.1028 97.048 80.8328 96.978 80.6048 96.838C80.3808 96.694 80.2168 96.508 80.1128 96.28V97H79.6988V92.56H80.1128V94.45ZM82.5488 95.356C82.5488 95.084 82.4948 94.85 82.3867 94.654C82.2828 94.454 82.1388 94.302 81.9548 94.198C81.7708 94.094 81.5628 94.042 81.3308 94.042C81.1068 94.042 80.9008 94.096 80.7128 94.204C80.5288 94.312 80.3828 94.466 80.2748 94.666C80.1668 94.866 80.1128 95.098 80.1128 95.362C80.1128 95.626 80.1668 95.858 80.2748 96.058C80.3828 96.258 80.5288 96.412 80.7128 96.52C80.9008 96.628 81.1068 96.682 81.3308 96.682C81.5628 96.682 81.7708 96.63 81.9548 96.526C82.1388 96.418 82.2828 96.264 82.3867 96.064C82.4948 95.86 82.5488 95.624 82.5488 95.356ZM86.4476 93.724L84.5036 98.542H84.0656L84.7016 96.982L83.3576 93.724H83.8196L84.9356 96.52L86.0156 93.724H86.4476ZM87.0891 97.03C87.0011 97.03 86.9271 97 86.8671 96.94C86.8111 96.88 86.7831 96.806 86.7831 96.718C86.7831 96.63 86.8111 96.558 86.8671 96.502C86.9271 96.442 87.0011 96.412 87.0891 96.412C87.1731 96.412 87.2431 96.442 87.2991 96.502C87.3591 96.558 87.3891 96.63 87.3891 96.718C87.3891 96.806 87.3591 96.88 87.2991 96.94C87.2431 97 87.1731 97.03 87.0891 97.03ZM87.0891 94.42C87.0011 94.42 86.9271 94.39 86.8671 94.33C86.8111 94.27 86.7831 94.196 86.7831 94.108C86.7831 94.02 86.8111 93.948 86.8671 93.892C86.9271 93.832 87.0011 93.802 87.0891 93.802C87.1731 93.802 87.2431 93.832 87.2991 93.892C87.3591 93.948 87.3891 94.02 87.3891 94.108C87.3891 94.196 87.3591 94.27 87.2991 94.33C87.2431 94.39 87.1731 94.42 87.0891 94.42Z" fill="#333333"/>
<path d="M97.682 94.858C97.906 94.898 98.096 95.016 98.252 95.212C98.408 95.408 98.486 95.63 98.486 95.878C98.486 96.09 98.43 96.282 98.318 96.454C98.21 96.622 98.052 96.756 97.844 96.856C97.636 96.952 97.394 97 97.118 97H95.45V92.83H97.04C97.324 92.83 97.568 92.878 97.772 92.974C97.976 93.07 98.13 93.2 98.234 93.364C98.338 93.524 98.39 93.704 98.39 93.904C98.39 94.144 98.326 94.344 98.198 94.504C98.07 94.664 97.898 94.782 97.682 94.858ZM96.134 94.582H96.98C97.204 94.582 97.378 94.532 97.502 94.432C97.63 94.328 97.694 94.18 97.694 93.988C97.694 93.8 97.63 93.654 97.502 93.55C97.378 93.442 97.204 93.388 96.98 93.388H96.134V94.582ZM97.058 96.442C97.29 96.442 97.472 96.386 97.604 96.274C97.736 96.162 97.802 96.006 97.802 95.806C97.802 95.602 97.732 95.44 97.592 95.32C97.452 95.2 97.266 95.14 97.034 95.14H96.134V96.442H97.058ZM102.259 95.266C102.259 95.39 102.251 95.502 102.235 95.602H99.7093C99.7293 95.866 99.8273 96.078 100.003 96.238C100.179 96.398 100.395 96.478 100.651 96.478C101.019 96.478 101.279 96.324 101.431 96.016H102.169C102.069 96.32 101.887 96.57 101.623 96.766C101.363 96.958 101.039 97.054 100.651 97.054C100.335 97.054 100.051 96.984 99.7993 96.844C99.5513 96.7 99.3553 96.5 99.2113 96.244C99.0713 95.984 99.0013 95.684 99.0013 95.344C99.0013 95.004 99.0693 94.706 99.2053 94.45C99.3453 94.19 99.5393 93.99 99.7873 93.85C100.039 93.71 100.327 93.64 100.651 93.64C100.963 93.64 101.241 93.708 101.485 93.844C101.729 93.98 101.919 94.172 102.055 94.42C102.191 94.664 102.259 94.946 102.259 95.266ZM101.545 95.05C101.541 94.798 101.451 94.596 101.275 94.444C101.099 94.292 100.881 94.216 100.621 94.216C100.385 94.216 100.183 94.292 100.015 94.444C99.8473 94.592 99.7473 94.794 99.7153 95.05H101.545ZM104.132 97.054C103.872 97.054 103.638 97.008 103.43 96.916C103.226 96.82 103.064 96.692 102.944 96.532C102.824 96.368 102.76 96.186 102.752 95.986H103.46C103.472 96.126 103.538 96.244 103.658 96.34C103.782 96.432 103.936 96.478 104.12 96.478C104.312 96.478 104.46 96.442 104.564 96.37C104.672 96.294 104.726 96.198 104.726 96.082C104.726 95.958 104.666 95.866 104.546 95.806C104.43 95.746 104.244 95.68 103.988 95.608C103.74 95.54 103.538 95.474 103.382 95.41C103.226 95.346 103.09 95.248 102.974 95.116C102.862 94.984 102.806 94.81 102.806 94.594C102.806 94.418 102.858 94.258 102.962 94.114C103.066 93.966 103.214 93.85 103.406 93.766C103.602 93.682 103.826 93.64 104.078 93.64C104.454 93.64 104.756 93.736 104.984 93.928C105.216 94.116 105.34 94.374 105.356 94.702H104.672C104.66 94.554 104.6 94.436 104.492 94.348C104.384 94.26 104.238 94.216 104.054 94.216C103.874 94.216 103.736 94.25 103.64 94.318C103.544 94.386 103.496 94.476 103.496 94.588C103.496 94.676 103.528 94.75 103.592 94.81C103.656 94.87 103.734 94.918 103.826 94.954C103.918 94.986 104.054 95.028 104.234 95.08C104.474 95.144 104.67 95.21 104.822 95.278C104.978 95.342 105.112 95.438 105.224 95.566C105.336 95.694 105.394 95.864 105.398 96.076C105.398 96.264 105.346 96.432 105.242 96.58C105.138 96.728 104.99 96.844 104.798 96.928C104.61 97.012 104.388 97.054 104.132 97.054ZM106.936 94.252V96.082C106.936 96.206 106.964 96.296 107.02 96.352C107.08 96.404 107.18 96.43 107.32 96.43H107.74V97H107.2C106.892 97 106.656 96.928 106.492 96.784C106.328 96.64 106.246 96.406 106.246 96.082V94.252H105.856V93.694H106.246V92.872H106.936V93.694H107.74V94.252H106.936ZM112.095 97L111.135 95.332H110.613V97H109.929V92.83H111.369C111.689 92.83 111.959 92.886 112.179 92.998C112.403 93.11 112.569 93.26 112.677 93.448C112.789 93.636 112.845 93.846 112.845 94.078C112.845 94.35 112.765 94.598 112.605 94.822C112.449 95.042 112.207 95.192 111.879 95.272L112.911 97H112.095ZM110.613 94.786H111.369C111.625 94.786 111.817 94.722 111.945 94.594C112.077 94.466 112.143 94.294 112.143 94.078C112.143 93.862 112.079 93.694 111.951 93.574C111.823 93.45 111.629 93.388 111.369 93.388H110.613V94.786ZM113.492 95.332C113.492 95 113.56 94.706 113.696 94.45C113.836 94.194 114.024 93.996 114.26 93.856C114.5 93.712 114.764 93.64 115.052 93.64C115.312 93.64 115.538 93.692 115.73 93.796C115.926 93.896 116.082 94.022 116.198 94.174V93.694H116.888V97H116.198V96.508C116.082 96.664 115.924 96.794 115.724 96.898C115.524 97.002 115.296 97.054 115.04 97.054C114.756 97.054 114.496 96.982 114.26 96.838C114.024 96.69 113.836 96.486 113.696 96.226C113.56 95.962 113.492 95.664 113.492 95.332ZM116.198 95.344C116.198 95.116 116.15 94.918 116.054 94.75C115.962 94.582 115.84 94.454 115.688 94.366C115.536 94.278 115.372 94.234 115.196 94.234C115.02 94.234 114.856 94.278 114.704 94.366C114.552 94.45 114.428 94.576 114.332 94.744C114.24 94.908 114.194 95.104 114.194 95.332C114.194 95.56 114.24 95.76 114.332 95.932C114.428 96.104 114.552 96.236 114.704 96.328C114.86 96.416 115.024 96.46 115.196 96.46C115.372 96.46 115.536 96.416 115.688 96.328C115.84 96.24 115.962 96.112 116.054 95.944C116.15 95.772 116.198 95.572 116.198 95.344ZM118.584 94.252V96.082C118.584 96.206 118.612 96.296 118.668 96.352C118.728 96.404 118.828 96.43 118.968 96.43H119.388V97H118.848C118.54 97 118.304 96.928 118.14 96.784C117.976 96.64 117.894 96.406 117.894 96.082V94.252H117.504V93.694H117.894V92.872H118.584V93.694H119.388V94.252H118.584ZM120.366 93.256C120.242 93.256 120.138 93.214 120.054 93.13C119.97 93.046 119.928 92.942 119.928 92.818C119.928 92.694 119.97 92.59 120.054 92.506C120.138 92.422 120.242 92.38 120.366 92.38C120.486 92.38 120.588 92.422 120.672 92.506C120.756 92.59 120.798 92.694 120.798 92.818C120.798 92.942 120.756 93.046 120.672 93.13C120.588 93.214 120.486 93.256 120.366 93.256ZM120.702 93.694V97H120.018V93.694H120.702ZM123.268 93.64C123.528 93.64 123.76 93.694 123.964 93.802C124.172 93.91 124.334 94.07 124.45 94.282C124.566 94.494 124.624 94.75 124.624 95.05V97H123.946V95.152C123.946 94.856 123.872 94.63 123.724 94.474C123.576 94.314 123.374 94.234 123.118 94.234C122.862 94.234 122.658 94.314 122.506 94.474C122.358 94.63 122.284 94.856 122.284 95.152V97H121.6V93.694H122.284V94.072C122.396 93.936 122.538 93.83 122.71 93.754C122.886 93.678 123.072 93.64 123.268 93.64ZM126.829 93.64C127.085 93.64 127.311 93.692 127.507 93.796C127.707 93.896 127.863 94.022 127.975 94.174V93.694H128.665V97.054C128.665 97.358 128.601 97.628 128.473 97.864C128.345 98.104 128.159 98.292 127.915 98.428C127.675 98.564 127.387 98.632 127.051 98.632C126.603 98.632 126.231 98.526 125.935 98.314C125.639 98.106 125.471 97.822 125.431 97.462H126.109C126.161 97.634 126.271 97.772 126.439 97.876C126.611 97.984 126.815 98.038 127.051 98.038C127.327 98.038 127.549 97.954 127.717 97.786C127.889 97.618 127.975 97.374 127.975 97.054V96.502C127.859 96.658 127.701 96.79 127.501 96.898C127.305 97.002 127.081 97.054 126.829 97.054C126.541 97.054 126.277 96.982 126.037 96.838C125.801 96.69 125.613 96.486 125.473 96.226C125.337 95.962 125.269 95.664 125.269 95.332C125.269 95 125.337 94.706 125.473 94.45C125.613 94.194 125.801 93.996 126.037 93.856C126.277 93.712 126.541 93.64 126.829 93.64ZM127.975 95.344C127.975 95.116 127.927 94.918 127.831 94.75C127.739 94.582 127.617 94.454 127.465 94.366C127.313 94.278 127.149 94.234 126.973 94.234C126.797 94.234 126.633 94.278 126.481 94.366C126.329 94.45 126.205 94.576 126.109 94.744C126.017 94.908 125.971 95.104 125.971 95.332C125.971 95.56 126.017 95.76 126.109 95.932C126.205 96.104 126.329 96.236 126.481 96.328C126.637 96.416 126.801 96.46 126.973 96.46C127.149 96.46 127.313 96.416 127.465 96.328C127.617 96.24 127.739 96.112 127.831 95.944C127.927 95.772 127.975 95.572 127.975 95.344Z" fill="#333333"/>
<path d="M131.667 94L133 95.3333L134.333 94" stroke="#333333" stroke-width="0.5" stroke-linecap="round" stroke-linejoin="round"/>
<rect x="40" y="112" width="14" height="14" rx="2" fill="#FEEBCD"/>
<rect x="63" y="113" width="41" height="3" rx="1.5" fill="#DCE0DE"/>
<rect x="63" y="117" width="31" height="2" rx="1" fill="#DCE0DE"/>
<rect x="63" y="120" width="27" height="2" rx="1" fill="#DCE0DE"/>
<rect x="63" y="123" width="22" height="2" rx="1" fill="#DCE0DE"/>
<rect x="40" y="131" width="14" height="14" rx="2" fill="#1B5060"/>
<rect x="63" y="132" width="41" height="3" rx="1.5" fill="#DCE0DE"/>
<rect x="63" y="136" width="31" height="2" rx="1" fill="#DCE0DE"/>
<rect x="63" y="139" width="27" height="2" rx="1" fill="#DCE0DE"/>
<rect x="63" y="142" width="22" height="2" rx="1" fill="#DCE0DE"/>
<rect x="40" y="150" width="14" height="14" rx="2" fill="#DCE0DE"/>
<rect x="63" y="151" width="41" height="3" rx="1.5" fill="#DCE0DE"/>
<rect x="63" y="155" width="31" height="2" rx="1" fill="#DCE0DE"/>
<rect x="63" y="158" width="27" height="2" rx="1" fill="#DCE0DE"/>
<rect x="63" y="161" width="22" height="2" rx="1" fill="#DCE0DE"/>
<rect x="40" y="169" width="14" height="14" rx="2" fill="#FFB531"/>
<rect x="63" y="170" width="41" height="3" rx="1.5" fill="#DCE0DE"/>
<rect x="63" y="174" width="31" height="2" rx="1" fill="#FEEBCD"/>
<rect x="63" y="177" width="27" height="2" rx="1" fill="#DCE0DE"/>
<rect x="63" y="180" width="22" height="2" rx="1" fill="#DCE0DE"/>
<rect x="40" y="188" width="14" height="14" rx="2" fill="#0D3642"/>
<rect x="63" y="189" width="41" height="3" rx="1.5" fill="#DCE0DE"/>
<rect x="63" y="193" width="31" height="2" rx="1" fill="#DCE0DE"/>
<rect x="63" y="196" width="27" height="2" rx="1" fill="#DCE0DE"/>
<rect x="63" y="199" width="22" height="2" rx="1" fill="#DCE0DE"/>
<rect x="223" y="88" width="57" height="114" rx="4" fill="#FBFBFB"/>
<g clip-path="url(#clip0)">
<path d="M170.955 179.44C175.027 179.44 178.328 176.152 178.328 172.096C178.328 168.04 175.027 164.752 170.955 164.752C166.883 164.752 163.582 168.04 163.582 172.096C163.582 176.152 166.883 179.44 170.955 179.44Z" fill="#FFB531"/>
<path opacity="0.2" d="M165.511 167.191C164.823 168.793 164.73 170.587 165.248 172.252C165.765 173.916 166.861 175.343 168.338 176.278C169.814 177.212 171.577 177.593 173.31 177.352C175.043 177.112 176.633 176.265 177.797 174.964C177.377 175.943 176.748 176.819 175.954 177.532C175.16 178.245 174.22 178.777 173.199 179.093C172.178 179.408 171.1 179.498 170.041 179.357C168.981 179.216 167.965 178.848 167.063 178.277C166.161 177.706 165.394 176.947 164.815 176.051C164.237 175.156 163.861 174.146 163.713 173.091C163.565 172.037 163.65 170.963 163.96 169.944C164.271 168.925 164.8 167.986 165.511 167.191Z" fill="black"/>
<path d="M170.975 172.096H170.995L171.36 192.918H170.59L170.975 172.096Z" fill="#3F3D56"/>
<path d="M156.037 165.745C164.247 165.745 170.902 159.116 170.902 150.938C170.902 142.76 164.247 136.131 156.037 136.131C147.826 136.131 141.171 142.76 141.171 150.938C141.171 159.116 147.826 165.745 156.037 165.745Z" fill="#FFB531"/>
<path opacity="0.2" d="M145.06 141.048C143.673 144.279 143.485 147.895 144.529 151.252C145.573 154.608 147.782 157.485 150.759 159.369C153.737 161.252 157.29 162.02 160.784 161.535C164.278 161.05 167.485 159.343 169.831 156.719C168.984 158.693 167.716 160.46 166.116 161.897C164.515 163.335 162.62 164.408 160.561 165.044C158.502 165.679 156.33 165.861 154.193 165.577C152.057 165.293 150.009 164.55 148.189 163.399C146.37 162.248 144.824 160.717 143.658 158.912C142.492 157.106 141.733 155.07 141.436 152.944C141.138 150.818 141.308 148.653 141.934 146.599C142.56 144.545 143.626 142.651 145.06 141.048Z" fill="black"/>
<path d="M156.077 150.938H156.118L156.853 192.918H155.302L156.077 150.938Z" fill="#3F3D56"/>
<path d="M254.048 171.189H185.909V191.308H254.048V171.189Z" fill="#F0F0F0"/>
<path d="M223.951 175.347H216.006V191.308H223.951V175.347Z" fill="#CACACA"/>
<path d="M250.075 147.449H189.882V165.958H250.075V147.449Z" fill="#F0F0F0"/>
<path d="M256.178 148.589H183.779C183.658 148.589 183.54 148.553 183.44 148.485C183.34 148.418 183.262 148.322 183.217 148.211C183.172 148.099 183.161 147.976 183.187 147.859C183.212 147.741 183.272 147.634 183.359 147.55L203.146 128.606V120.355C203.146 120.195 203.21 120.042 203.324 119.928C203.437 119.815 203.591 119.752 203.752 119.751H207.657C207.818 119.752 207.972 119.815 208.085 119.928C208.199 120.042 208.263 120.195 208.263 120.355V123.707L209.758 122.277C212.203 119.935 215.448 118.602 218.84 118.546C222.232 118.49 225.519 119.715 228.041 121.974L256.583 147.536C256.674 147.618 256.739 147.725 256.767 147.844C256.796 147.963 256.788 148.087 256.744 148.201C256.7 148.315 256.622 148.413 256.521 148.483C256.42 148.552 256.301 148.589 256.178 148.589V148.589Z" fill="#CACACA"/>
<path d="M205.772 152.143C206.276 152.143 206.775 152.242 207.24 152.434C207.706 152.626 208.129 152.908 208.485 153.263C208.842 153.618 209.125 154.039 209.317 154.503C209.51 154.967 209.61 155.464 209.61 155.966V161.13H201.934V155.966C201.934 154.952 202.338 153.98 203.058 153.263C203.778 152.546 204.754 152.143 205.772 152.143Z" fill="white"/>
<path d="M219.978 152.21C220.482 152.21 220.982 152.309 221.447 152.501C221.913 152.693 222.336 152.975 222.692 153.33C223.049 153.685 223.331 154.106 223.524 154.57C223.717 155.034 223.816 155.531 223.816 156.033V161.197H216.141V156.033C216.141 155.531 216.24 155.034 216.433 154.57C216.626 154.106 216.908 153.685 217.265 153.33C217.621 152.975 218.044 152.693 218.51 152.501C218.975 152.309 219.474 152.21 219.978 152.21Z" fill="white"/>
<path d="M234.185 152.277C234.689 152.277 235.188 152.376 235.654 152.568C236.12 152.76 236.543 153.042 236.899 153.397C237.255 153.752 237.538 154.173 237.731 154.637C237.924 155.101 238.023 155.598 238.023 156.1V161.264H230.347V156.1C230.347 155.598 230.447 155.101 230.64 154.637C230.832 154.173 231.115 153.752 231.471 153.397C231.828 153.042 232.251 152.76 232.717 152.568C233.182 152.376 233.681 152.277 234.185 152.277Z" fill="white"/>
<path d="M239.841 175.146C240.859 175.146 241.835 175.549 242.555 176.266C243.275 176.982 243.679 177.955 243.679 178.969V184.133H236.003V178.969C236.003 177.955 236.408 176.982 237.127 176.266C237.847 175.549 238.823 175.146 239.841 175.146Z" fill="white"/>
<path d="M201.867 175.146C202.884 175.146 203.861 175.549 204.58 176.266C205.3 176.982 205.704 177.955 205.704 178.969V184.133H198.029V178.969C198.029 178.467 198.128 177.97 198.321 177.506C198.514 177.042 198.796 176.621 199.153 176.266C199.509 175.911 199.932 175.629 200.398 175.437C200.863 175.245 201.363 175.146 201.867 175.146Z" fill="white"/>
<path d="M264.003 171.503L251.221 165.87C251.152 165.84 251.078 165.824 251.003 165.824H190.085C190.016 165.824 189.947 165.838 189.883 165.864L175.969 171.497C175.854 171.544 175.758 171.629 175.698 171.739C175.639 171.848 175.62 171.975 175.644 172.097C175.668 172.219 175.733 172.329 175.83 172.408C175.926 172.487 176.047 172.53 176.172 172.53H179.782V191.04H179.378V192.918H260.579V191.04H259.906V172.53H263.785C263.908 172.53 264.028 172.488 264.124 172.411C264.22 172.333 264.286 172.225 264.312 172.105C264.337 171.985 264.321 171.859 264.264 171.75C264.208 171.64 264.116 171.553 264.003 171.503ZM258.828 191.04H180.859V172.53H258.828V191.04Z" fill="#CACACA"/>
<path d="M210.552 160.392H200.722V162.001H210.552V160.392Z" fill="#CACACA"/>
<path d="M224.961 160.392H215.131V162.001H224.961V160.392Z" fill="#CACACA"/>
<path d="M239.37 160.392H229.54V162.001H239.37V160.392Z" fill="#CACACA"/>
<path d="M244.756 183.596H234.926V185.205H244.756V183.596Z" fill="#CACACA"/>
<path d="M206.647 183.596H196.817V185.205H206.647V183.596Z" fill="#CACACA"/>
<path d="M279.835 193H130.165C130.121 193 130.079 192.983 130.048 192.952C130.017 192.921 130 192.879 130 192.836C130 192.792 130.017 192.75 130.048 192.719C130.079 192.689 130.121 192.671 130.165 192.671H279.835C279.879 192.671 279.921 192.689 279.952 192.719C279.983 192.75 280 192.792 280 192.836C280 192.879 279.983 192.921 279.952 192.952C279.921 192.983 279.879 193 279.835 193Z" fill="#3F3D56"/>
<path d="M240.229 179.137L240.183 178.56C240.122 178.333 239.554 179.044 239.486 179.06C239.307 179.022 239.122 179.014 238.94 179.035C238.964 177.999 238.804 178.469 238.339 178.937C236.841 179.693 237.391 182.082 239.096 182.094C240.652 182.185 241.425 180.079 240.229 179.137Z" fill="#3F3D56"/>
<path d="M240.44 181.481C241.06 181.472 241.84 183.64 240.37 183.651C239.61 183.657 238.263 183.805 238.263 183.805C238.263 183.805 237.217 182.24 237.683 181.266L240.44 181.481Z" fill="#3F3D56"/>
<path d="M239.075 182.627V183.751H239.602L240.021 182.607" fill="#3F3D56"/>
<path d="M239.602 183.771C239.592 183.759 239.032 183.796 239.055 183.751L239.055 182.627C239.148 182.477 239.073 183.745 239.096 183.73H239.588C239.612 183.716 239.976 182.565 240.028 182.588C240.03 182.589 240.033 182.59 240.035 182.592C240.037 182.594 240.038 182.596 240.039 182.598C240.041 182.601 240.041 182.603 240.041 182.606C240.041 182.609 240.041 182.611 240.04 182.614C240.021 182.628 239.642 183.778 239.602 183.771Z" fill="white"/>
<path d="M240.874 183.682C240.889 183.866 239.996 183.866 240.011 183.682C239.996 183.497 240.889 183.497 240.874 183.682Z" fill="#3F3D56"/>
<path d="M240.226 183.559C240.175 183.571 240.001 182.719 240.53 182.599C240.015 182.872 240.28 183.505 240.226 183.559Z" fill="white"/>
<path d="M240.96 183.372C240.957 183.368 240.955 183.363 240.952 183.359L240.884 183.362L240.96 183.372Z" fill="#3F3D56"/>
<path d="M243.199 182.723C242.895 182.273 242.309 182.477 242.079 182.889C241.807 183.386 240.643 183.016 240.789 183.683C241.515 183.53 243.665 184.053 243.199 182.723Z" fill="#3F3D56"/>
<path d="M239.007 181.946C238.53 182.039 237.688 181.451 237.666 181.277C237.663 181.272 237.663 181.267 237.664 181.262C237.665 181.257 237.668 181.252 237.673 181.249C237.678 181.247 237.683 181.246 237.688 181.247C237.693 181.248 237.698 181.251 237.701 181.256C237.863 181.485 238.087 181.665 238.346 181.775C238.748 181.978 239.483 181.982 240.458 181.471C240.032 181.77 239.527 181.936 239.007 181.946Z" fill="white"/>
<path d="M239.096 180.907C238.988 180.941 238.895 180.682 238.993 180.764C238.993 180.791 239.004 180.817 239.023 180.836C239.042 180.856 239.069 180.866 239.096 180.866C239.184 180.875 239.179 180.78 239.219 180.744C239.288 180.798 239.17 180.918 239.096 180.907Z" fill="white"/>
<path d="M238.9 183.685C238.86 183.691 238.571 182.659 238.552 182.644C238.55 182.639 238.551 182.633 238.553 182.628C238.556 182.623 238.56 182.62 238.565 182.618C238.619 182.597 238.896 183.645 238.92 183.659C238.921 183.662 238.921 183.665 238.921 183.668C238.92 183.671 238.919 183.674 238.917 183.677C238.915 183.679 238.913 183.682 238.91 183.683C238.907 183.684 238.904 183.685 238.9 183.685Z" fill="white"/>
<path d="M239.764 183.825C239.779 184.01 238.886 184.01 238.9 183.825C238.886 183.64 239.779 183.64 239.764 183.825Z" fill="#3F3D56"/>
<path d="M239.065 183.805C239.08 183.989 238.187 183.989 238.202 183.805C238.187 183.62 239.08 183.62 239.065 183.805Z" fill="#3F3D56"/>
<path d="M239.271 180.508C239.276 180.589 238.936 180.589 238.942 180.508C238.936 180.427 239.276 180.427 239.271 180.508Z" fill="white"/>
<path d="M238 180.513C238.047 180.457 238.106 180.412 238.173 180.381C238.239 180.35 238.312 180.334 238.385 180.334C238.458 180.334 238.531 180.35 238.597 180.381C238.664 180.412 238.723 180.457 238.77 180.513C239.3 180.023 238.516 179.205 238 179.71C237.946 179.762 237.902 179.824 237.873 179.893C237.843 179.962 237.828 180.036 237.828 180.111C237.828 180.186 237.843 180.26 237.873 180.33C237.902 180.399 237.946 180.461 238 180.513Z" fill="white"/>
<path d="M239.505 180.513C239.552 180.457 239.611 180.412 239.678 180.381C239.744 180.35 239.817 180.334 239.89 180.334C239.963 180.334 240.036 180.35 240.102 180.381C240.169 180.412 240.228 180.457 240.275 180.513C240.805 180.023 240.021 179.205 239.505 179.71C239.451 179.762 239.407 179.824 239.378 179.893C239.348 179.962 239.333 180.036 239.333 180.111C239.333 180.186 239.348 180.26 239.378 180.329C239.407 180.398 239.451 180.461 239.505 180.513Z" fill="white"/>
<path d="M238.141 179.974C238.191 179.976 238.238 179.996 238.273 180.032C238.308 180.068 238.327 180.115 238.327 180.165C238.327 180.215 238.308 180.263 238.273 180.298C238.238 180.334 238.191 180.355 238.141 180.356C238.091 180.355 238.043 180.334 238.008 180.298C237.974 180.263 237.954 180.215 237.954 180.165C237.954 180.115 237.974 180.068 238.008 180.032C238.043 179.996 238.091 179.976 238.141 179.974Z" fill="#3F3D56"/>
<path d="M239.645 179.974C239.695 179.976 239.743 179.996 239.778 180.032C239.812 180.068 239.832 180.115 239.832 180.165C239.832 180.215 239.812 180.263 239.778 180.298C239.743 180.334 239.695 180.355 239.645 180.356C239.595 180.355 239.548 180.334 239.513 180.298C239.478 180.263 239.459 180.215 239.459 180.165C239.459 180.115 239.478 180.068 239.513 180.032C239.548 179.996 239.595 179.976 239.645 179.974Z" fill="#3F3D56"/>
<path d="M239.908 180.582C239.952 180.583 239.993 180.601 240.024 180.633C240.054 180.664 240.071 180.706 240.071 180.749C240.071 180.793 240.054 180.835 240.024 180.866C239.993 180.897 239.952 180.916 239.908 180.917C239.864 180.916 239.822 180.897 239.792 180.866C239.761 180.835 239.744 180.793 239.744 180.749C239.744 180.706 239.761 180.664 239.792 180.633C239.822 180.601 239.864 180.583 239.908 180.582Z" fill="#FF6584"/>
<path d="M238.39 180.582C238.433 180.583 238.475 180.601 238.506 180.633C238.536 180.664 238.553 180.706 238.553 180.749C238.553 180.793 238.536 180.835 238.506 180.866C238.475 180.897 238.433 180.916 238.39 180.917C238.346 180.916 238.304 180.897 238.274 180.866C238.243 180.835 238.226 180.793 238.226 180.749C238.226 180.706 238.243 180.664 238.274 180.633C238.304 180.601 238.346 180.583 238.39 180.582Z" fill="#FF6584"/>
<path d="M190.18 115.57C190.137 115.57 190.096 115.554 190.065 115.525C190.034 115.497 190.015 115.457 190.012 115.415C189.903 113.928 189.233 112.537 188.138 111.521C187.042 110.504 185.602 109.937 184.105 109.933C183.926 109.933 183.738 109.942 183.546 109.96C183.514 109.963 183.482 109.957 183.453 109.942C183.424 109.928 183.4 109.905 183.384 109.877C182.697 108.678 181.67 107.708 180.432 107.086C179.194 106.465 177.8 106.221 176.424 106.384C175.047 106.547 173.749 107.11 172.692 108.003C171.635 108.896 170.865 110.08 170.479 111.406C170.469 111.441 170.447 111.472 170.417 111.494C170.388 111.516 170.351 111.527 170.314 111.526L170.269 111.525C170.246 111.524 170.223 111.524 170.2 111.524C169.064 111.527 167.964 111.917 167.082 112.629C166.2 113.341 165.588 114.332 165.349 115.438C165.342 115.475 165.321 115.509 165.291 115.533C165.261 115.557 165.224 115.57 165.185 115.57H153.927C153.905 115.57 153.883 115.566 153.862 115.558C153.842 115.549 153.823 115.537 153.808 115.522C153.792 115.506 153.78 115.488 153.771 115.467C153.763 115.447 153.758 115.425 153.758 115.403C153.758 115.381 153.763 115.359 153.771 115.339C153.78 115.319 153.792 115.3 153.808 115.285C153.823 115.269 153.842 115.257 153.862 115.248C153.883 115.24 153.905 115.236 153.927 115.236H165.051C165.331 114.086 165.989 113.062 166.921 112.329C167.854 111.595 169.006 111.194 170.194 111.189C170.617 109.826 171.428 108.615 172.529 107.703C173.629 106.791 174.972 106.217 176.395 106.05C177.817 105.884 179.257 106.132 180.54 106.766C181.823 107.399 182.894 108.39 183.622 109.618C183.787 109.605 183.949 109.599 184.105 109.599C185.687 109.603 187.209 110.202 188.367 111.276C189.524 112.35 190.232 113.82 190.348 115.391C190.349 115.413 190.346 115.435 190.339 115.456C190.332 115.477 190.321 115.496 190.307 115.513C190.292 115.529 190.275 115.543 190.255 115.553C190.235 115.563 190.214 115.568 190.192 115.57C190.188 115.57 190.184 115.57 190.18 115.57Z" fill="#CBCBCB"/>
<path d="M188.18 117.716H160.621C160.576 117.716 160.534 117.699 160.502 117.667C160.471 117.636 160.453 117.593 160.453 117.549C160.453 117.505 160.471 117.462 160.502 117.431C160.534 117.399 160.576 117.382 160.621 117.382H188.18C188.225 117.382 188.268 117.399 188.299 117.431C188.331 117.462 188.348 117.505 188.348 117.549C188.348 117.593 188.331 117.636 188.299 117.667C188.268 117.699 188.225 117.716 188.18 117.716Z" fill="#CBCBCB"/>
<path d="M167.343 120.144H158.1C158.056 120.144 158.013 120.126 157.981 120.095C157.95 120.063 157.932 120.021 157.932 119.976C157.932 119.932 157.95 119.889 157.981 119.858C158.013 119.826 158.056 119.809 158.1 119.809H167.343C167.387 119.809 167.43 119.826 167.462 119.858C167.493 119.889 167.511 119.932 167.511 119.976C167.511 120.021 167.493 120.063 167.462 120.095C167.43 120.126 167.387 120.144 167.343 120.144Z" fill="#CBCBCB"/>
<path d="M278.464 128.062C278.421 128.062 278.38 128.046 278.349 128.017C278.318 127.988 278.299 127.948 278.296 127.906C278.186 126.419 277.517 125.028 276.422 124.012C275.326 122.996 273.886 122.429 272.389 122.425C272.21 122.425 272.022 122.434 271.83 122.452C271.798 122.455 271.765 122.449 271.737 122.434C271.708 122.419 271.684 122.396 271.668 122.368C270.981 121.17 269.954 120.199 268.716 119.578C267.478 118.957 266.084 118.712 264.707 118.875C263.331 119.038 262.033 119.602 260.976 120.495C259.919 121.388 259.149 122.571 258.763 123.897C258.753 123.933 258.731 123.964 258.701 123.986C258.671 124.008 258.635 124.019 258.598 124.018L258.553 124.017C258.53 124.016 258.507 124.015 258.483 124.015C257.348 124.018 256.248 124.409 255.366 125.121C254.483 125.832 253.872 126.823 253.633 127.929C253.625 127.967 253.605 128 253.575 128.024C253.545 128.049 253.507 128.062 253.469 128.062H242.211C242.189 128.062 242.167 128.058 242.146 128.049C242.126 128.041 242.107 128.029 242.092 128.013C242.076 127.997 242.063 127.979 242.055 127.959C242.046 127.938 242.042 127.917 242.042 127.894C242.042 127.872 242.046 127.851 242.055 127.83C242.063 127.81 242.076 127.792 242.092 127.776C242.107 127.76 242.126 127.748 242.146 127.74C242.167 127.731 242.189 127.727 242.211 127.727H253.334C253.614 126.577 254.273 125.554 255.205 124.82C256.137 124.087 257.29 123.685 258.478 123.68C258.9 122.318 259.712 121.107 260.812 120.194C261.913 119.282 263.256 118.708 264.678 118.542C266.101 118.375 267.541 118.624 268.824 119.257C270.107 119.891 271.177 120.881 271.906 122.109C272.071 122.097 272.233 122.09 272.389 122.09C273.971 122.094 275.493 122.693 276.65 123.768C277.808 124.842 278.515 126.311 278.631 127.883C278.633 127.905 278.63 127.927 278.623 127.948C278.616 127.968 278.605 127.988 278.591 128.004C278.576 128.021 278.559 128.034 278.539 128.044C278.519 128.054 278.498 128.06 278.476 128.061C278.472 128.062 278.468 128.062 278.464 128.062Z" fill="#CBCBCB"/>
<path d="M276.464 130.208H248.905C248.86 130.208 248.817 130.19 248.786 130.159C248.754 130.128 248.737 130.085 248.737 130.041C248.737 129.996 248.754 129.954 248.786 129.922C248.817 129.891 248.86 129.873 248.905 129.873H276.464C276.509 129.873 276.552 129.891 276.583 129.922C276.615 129.954 276.632 129.996 276.632 130.041C276.632 130.085 276.615 130.128 276.583 130.159C276.552 130.19 276.509 130.208 276.464 130.208Z" fill="#CBCBCB"/>
<path d="M255.627 132.635H246.384C246.34 132.635 246.297 132.617 246.265 132.586C246.234 132.555 246.216 132.512 246.216 132.468C246.216 132.423 246.234 132.381 246.265 132.349C246.297 132.318 246.34 132.3 246.384 132.3H255.627C255.671 132.3 255.714 132.318 255.745 132.349C255.777 132.381 255.795 132.423 255.795 132.468C255.795 132.512 255.777 132.555 255.745 132.586C255.714 132.617 255.671 132.635 255.627 132.635Z" fill="#CBCBCB"/>
<path d="M159.62 190.046C161.75 190.655 161.775 187.658 162.114 186.308C160.91 187.125 158.881 188.289 159.628 190.01" fill="#FFB531"/>
<path d="M159.738 192.372C159.458 190.796 159.44 188.8 160.993 187.869C161.067 187.822 161.135 187.939 161.061 187.986C159.562 188.889 159.607 190.817 159.869 192.336C159.873 192.353 159.87 192.371 159.861 192.387C159.852 192.402 159.838 192.413 159.821 192.417C159.804 192.422 159.786 192.42 159.77 192.412C159.755 192.403 159.743 192.389 159.738 192.372L159.738 192.372Z" fill="#3F3D56"/>
<path d="M160.427 191.257C161.402 192.56 162.759 190.816 163.561 190.176C162.491 190.119 160.781 189.9 160.448 191.24" fill="#FFB531"/>
<path d="M159.467 192.772C160.018 191.721 160.898 190.533 162.239 190.683C162.326 190.691 162.304 190.825 162.217 190.817C160.943 190.686 160.114 191.827 159.591 192.827C159.549 192.902 159.424 192.848 159.467 192.772Z" fill="#3F3D56"/>
<path d="M267.833 190.046C265.703 190.655 265.678 187.658 265.339 186.308C266.542 187.125 268.572 188.289 267.825 190.01" fill="#FFB531"/>
<path d="M267.715 192.372C267.995 190.796 268.013 188.8 266.46 187.869C266.386 187.822 266.317 187.939 266.391 187.986C267.89 188.889 267.846 190.817 267.584 192.336C267.58 192.353 267.583 192.371 267.592 192.387C267.6 192.402 267.615 192.413 267.632 192.417C267.649 192.422 267.667 192.42 267.683 192.412C267.698 192.403 267.71 192.389 267.715 192.372L267.715 192.372Z" fill="#3F3D56"/>
<path d="M267.026 191.257C266.051 192.56 264.694 190.816 263.891 190.176C264.962 190.119 266.672 189.9 267.005 191.24" fill="#FFB531"/>
<path d="M267.986 192.772C267.435 191.721 266.555 190.533 265.214 190.683C265.127 190.691 265.148 190.825 265.235 190.817C266.509 190.686 267.338 191.827 267.861 192.827C267.904 192.902 268.029 192.848 267.986 192.772Z" fill="#3F3D56"/>
<path d="M276.788 187.953C273.075 189.015 273.031 183.789 272.441 181.437C274.539 182.86 278.077 184.89 276.774 187.89" fill="#FFB531"/>
<path d="M276.583 192.008C277.071 189.26 277.102 185.781 274.395 184.157C274.266 184.076 274.147 184.28 274.275 184.361C276.889 185.935 276.811 189.297 276.354 191.945C276.347 191.975 276.352 192.006 276.368 192.032C276.383 192.059 276.409 192.078 276.438 192.086C276.468 192.094 276.5 192.091 276.527 192.076C276.554 192.061 276.574 192.037 276.583 192.008L276.583 192.008Z" fill="#3F3D56"/>
<path d="M275.382 190.064C273.683 192.336 271.317 189.294 269.918 188.179C271.784 188.08 274.765 187.697 275.345 190.033" fill="#FFB531"/>
<path d="M277.055 192.704C276.095 190.873 274.561 188.802 272.223 189.063C272.071 189.076 272.109 189.31 272.261 189.297C274.482 189.068 275.927 191.057 276.838 192.8C276.913 192.931 277.13 192.837 277.055 192.704Z" fill="#3F3D56"/>
<path d="M143.185 192.31H143.812L144.11 189.9H143.185V192.31Z" fill="#FFB6B6"/>
<path d="M143.025 192.106L144.26 192.106H144.26C144.468 192.106 144.669 192.188 144.816 192.335C144.964 192.482 145.047 192.682 145.047 192.889V192.915L143.025 192.915L143.025 192.106Z" fill="#2F2E41"/>
<path d="M146.151 192.31H146.778L147.077 189.9H146.151L146.151 192.31Z" fill="#FFB6B6"/>
<path d="M145.991 192.106L147.226 192.106H147.226C147.435 192.106 147.635 192.188 147.783 192.335C147.93 192.482 148.013 192.682 148.013 192.889V192.915L145.991 192.915L145.991 192.106Z" fill="#2F2E41"/>
<path d="M147.322 181.296C147.375 181.235 147.414 181.164 147.436 181.088C147.459 181.011 147.464 180.93 147.452 180.851C147.44 180.772 147.41 180.696 147.365 180.63C147.321 180.563 147.262 180.508 147.193 180.466L146.173 175.586L145.061 176.022L146.414 180.682C146.351 180.802 146.335 180.94 146.369 181.07C146.402 181.201 146.482 181.315 146.594 181.39C146.706 181.466 146.842 181.498 146.976 181.481C147.11 181.463 147.233 181.397 147.322 181.296H147.322Z" fill="#FFB6B6"/>
<path d="M142.512 180.356L142.05 180.823C142.05 180.823 141.554 182.632 142.503 184.863L143.137 191.33L144.278 191.416L144.619 183.891L146.19 186.389L145.916 191.389L147.177 191.36L147.747 185.82L146.19 180.038L142.512 180.356Z" fill="#2F2E41"/>
<path d="M144.128 180.985C143.432 180.98 142.737 180.935 142.046 180.848L142.019 180.845L142.707 177.829L142.47 173.95L144.71 173.873C144.913 173.866 145.111 173.933 145.267 174.063C145.423 174.192 145.525 174.374 145.554 174.574L146.013 177.67L146.437 180.416L146.431 180.424C146.126 180.869 145.107 180.985 144.128 180.985Z" fill="#FFB531"/>
<path d="M144.506 174.515L144.961 173.947C144.961 173.947 145.759 173.403 146.012 174.568C146.264 175.732 146.733 177.623 146.733 177.623L145.173 177.748L144.506 174.515Z" fill="#FFB531"/>
<path d="M140.194 181.346C140.141 181.286 140.102 181.215 140.079 181.139C140.057 181.062 140.051 180.981 140.064 180.902C140.076 180.823 140.105 180.747 140.15 180.681C140.195 180.614 140.254 180.558 140.322 180.517L141.343 175.637L142.455 176.073L141.102 180.733C141.164 180.853 141.18 180.991 141.147 181.121C141.114 181.252 141.033 181.366 140.921 181.441C140.809 181.517 140.674 181.549 140.539 181.532C140.405 181.514 140.282 181.448 140.194 181.346Z" fill="#FFB6B6"/>
<path d="M143.009 174.566L142.554 173.998C142.554 173.998 141.756 173.454 141.504 174.619C141.251 175.783 140.782 177.673 140.782 177.673L142.342 177.799L143.009 174.566Z" fill="#FFB531"/>
<path d="M144.927 173.306H141.96C141.899 173.306 141.841 173.282 141.798 173.239C141.754 173.196 141.73 173.137 141.73 173.077V171.803C141.73 171.35 141.911 170.916 142.232 170.596C142.553 170.276 142.989 170.096 143.444 170.096C143.898 170.096 144.334 170.276 144.655 170.596C144.977 170.916 145.157 171.35 145.157 171.803V173.077C145.157 173.137 145.133 173.196 145.09 173.239C145.047 173.282 144.988 173.306 144.927 173.306Z" fill="#2F2E41"/>
<path d="M143.771 173.229C144.465 173.229 145.027 172.669 145.027 171.978C145.027 171.287 144.465 170.726 143.771 170.726C143.077 170.726 142.515 171.287 142.515 171.978C142.515 172.669 143.077 173.229 143.771 173.229Z" fill="#FFB6B6"/>
<path d="M145.563 171.93H143.748L143.73 171.671L143.637 171.93H143.358L143.321 171.416L143.136 171.93H142.596V171.905C142.596 171.547 142.739 171.204 142.993 170.951C143.247 170.697 143.592 170.555 143.951 170.555H144.207C144.566 170.555 144.911 170.697 145.165 170.951C145.419 171.204 145.562 171.547 145.563 171.905V171.93Z" fill="#2F2E41"/>
<path d="M143.734 173.544C143.72 173.544 143.706 173.542 143.693 173.54L142.365 173.307V171.12H143.827L143.791 171.162C143.287 171.747 143.666 172.696 143.937 173.209C143.957 173.247 143.966 173.289 143.963 173.332C143.96 173.374 143.945 173.415 143.919 173.449C143.898 173.478 143.87 173.502 143.838 173.519C143.806 173.535 143.77 173.544 143.734 173.544Z" fill="#2F2E41"/>
</g>
</g>
<defs>
<filter id="filter0_d" x="0" y="34" width="320" height="220" filterUnits="userSpaceOnUse" color-interpolation-filters="sRGB">
<feFlood flood-opacity="0" result="BackgroundImageFix"/>
<feColorMatrix in="SourceAlpha" type="matrix" values="0 0 0 0 0 0 0 0 0 0 0 0 0 0 0 0 0 0 127 0"/>
<feOffset dy="4"/>
<feGaussianBlur stdDeviation="10"/>
<feColorMatrix type="matrix" values="0 0 0 0 0 0 0 0 0 0 0 0 0 0 0 0 0 0 0.05 0"/>
<feBlend mode="normal" in2="BackgroundImageFix" result="effect1_dropShadow"/>
<feBlend mode="normal" in="SourceGraphic" in2="effect1_dropShadow" result="shape"/>
</filter>
<clipPath id="clip0">
<rect width="150" height="87" fill="white" transform="translate(130 106)"/>
</clipPath>
</defs>
</svg>
