<svg width="32" height="32" viewBox="0 0 32 32" fill="none" xmlns="http://www.w3.org/2000/svg">
<path d="M8.33329 4.66669C7.71445 4.66669 7.12096 4.91252 6.68338 5.3501C6.24579 5.78769 5.99996 6.38118 5.99996 7.00002V10.3334C5.99996 11.6214 7.04529 12.6667 8.33329 12.6667H11.6666C12.2855 12.6667 12.879 12.4209 13.3165 11.9833C13.7541 11.5457 14 10.9522 14 10.3334V7.00002C14 6.38118 13.7541 5.78769 13.3165 5.3501C12.879 4.91252 12.2855 4.66669 11.6666 4.66669H8.33329ZM18 7.00002C18 5.71202 19.0453 4.66669 20.3333 4.66669H23.6666C24.9546 4.66669 26 5.71202 26 7.00002V10.3334C26 10.9522 25.7541 11.5457 25.3165 11.9833C24.879 12.4209 24.2855 12.6667 23.6666 12.6667H20.3333C19.7145 12.6667 19.121 12.4209 18.6834 11.9833C18.2458 11.5457 18 10.9522 18 10.3334V7.00002ZM20.3333 6.66669C20.2449 6.66669 20.1601 6.70181 20.0976 6.76432C20.0351 6.82683 20 6.91161 20 7.00002V10.3334C20 10.5174 20.1493 10.6667 20.3333 10.6667H23.6666C23.755 10.6667 23.8398 10.6316 23.9023 10.5691C23.9648 10.5065 24 10.4218 24 10.3334V7.00002C24 6.91161 23.9648 6.82683 23.9023 6.76432C23.8398 6.70181 23.755 6.66669 23.6666 6.66669H20.3333ZM9.33329 23.3334C9.86373 23.3334 10.3724 23.1226 10.7475 22.7476C11.1226 22.3725 11.3333 21.8638 11.3333 21.3334C11.3333 20.8029 11.1226 20.2942 10.7475 19.9191C10.3724 19.5441 9.86373 19.3334 9.33329 19.3334C8.80286 19.3334 8.29415 19.5441 7.91908 19.9191C7.54401 20.2942 7.33329 20.8029 7.33329 21.3334C7.33329 21.8638 7.54401 22.3725 7.91908 22.7476C8.29415 23.1226 8.80286 23.3334 9.33329 23.3334ZM8.66663 17.3334H17.08C17.9041 16.4739 18.8962 15.7931 19.9946 15.3334H8.66663C7.07533 15.3334 5.5492 15.9655 4.42399 17.0907C3.29877 18.2159 2.66663 19.7421 2.66663 21.3334C2.66663 22.9247 3.29877 24.4508 4.42399 25.576C5.5492 26.7012 7.07533 27.3334 8.66663 27.3334H15.6426C15.3126 26.7001 15.0627 26.0283 14.8986 25.3334H8.66663C7.60576 25.3334 6.58834 24.9119 5.8382 24.1618C5.08805 23.4116 4.66663 22.3942 4.66663 21.3334C4.66663 20.2725 5.08805 19.2551 5.8382 18.5049C6.58834 17.7548 7.60576 17.3334 8.66663 17.3334ZM14 21.3334C14 21.9334 14.2626 22.4694 14.68 22.836C14.748 21.6269 15.0701 20.4457 15.6253 19.3694C15.1682 19.4565 14.7558 19.7003 14.4592 20.0588C14.1625 20.4173 14.0001 20.868 14 21.3334ZM30.6666 23.3334C30.6666 25.2783 29.894 27.1435 28.5187 28.5188C27.1435 29.8941 25.2782 30.6667 23.3333 30.6667C21.3884 30.6667 19.5231 29.8941 18.1478 28.5188C16.7726 27.1435 16 25.2783 16 23.3334C16 21.3884 16.7726 19.5232 18.1478 18.1479C19.5231 16.7726 21.3884 16 23.3333 16C25.2782 16 27.1435 16.7726 28.5187 18.1479C29.894 19.5232 30.6666 21.3884 30.6666 23.3334ZM27.8053 20.1947C27.7434 20.1326 27.6698 20.0833 27.5888 20.0497C27.5078 20.0161 27.421 19.9988 27.3333 19.9988C27.2456 19.9988 27.1588 20.0161 27.0778 20.0497C26.9968 20.0833 26.9232 20.1326 26.8613 20.1947L22 25.0574L19.8053 22.8614C19.6801 22.7362 19.5103 22.6658 19.3333 22.6658C19.1563 22.6658 18.9865 22.7362 18.8613 22.8614C18.7361 22.9865 18.6658 23.1563 18.6658 23.3334C18.6658 23.5104 18.7361 23.6802 18.8613 23.8054L21.528 26.472C21.5899 26.5341 21.6635 26.5834 21.7444 26.617C21.8254 26.6506 21.9123 26.6679 22 26.6679C22.0876 26.6679 22.1745 26.6506 22.2555 26.617C22.3365 26.5834 22.41 26.5341 22.472 26.472L27.8053 21.1387C27.8674 21.0768 27.9166 21.0032 27.9502 20.9222C27.9839 20.8412 28.0012 20.7544 28.0012 20.6667C28.0012 20.579 27.9839 20.4922 27.9502 20.4112C27.9166 20.3302 27.8674 20.2566 27.8053 20.1947Z" fill="#FFB531"/>
</svg>
