<svg width="43" height="44" viewBox="0 0 43 44" fill="none" xmlns="http://www.w3.org/2000/svg">
<rect x="43" width="32" height="32" rx="16" transform="rotate(90 43 0)" fill="#DCE0DE"/>
<path d="M15.0489 14.927C15.3483 14.0057 16.6517 14.0057 16.9511 14.9271L19.3677 22.3647C19.5016 22.7768 19.8855 23.0557 20.3188 23.0557H28.1392C29.1079 23.0557 29.5107 24.2953 28.727 24.8647L22.4001 29.4615C22.0496 29.7161 21.903 30.1675 22.0369 30.5795L24.4535 38.0172C24.7529 38.9385 23.6984 39.7047 22.9147 39.1353L16.5878 34.5385C16.2373 34.2839 15.7627 34.2839 15.4122 34.5385L9.08533 39.1353C8.30162 39.7047 7.24714 38.9385 7.54649 38.0172L9.96315 30.5795C10.097 30.1675 9.95036 29.7161 9.59987 29.4615L3.27299 24.8647C2.48928 24.2953 2.89206 23.0557 3.86078 23.0557H11.6812C12.1145 23.0557 12.4984 22.7768 12.6323 22.3647L15.0489 14.927Z" fill="#FFB531"/>
</svg>
