<svg width="43" height="43" viewBox="0 0 43 43" fill="none" xmlns="http://www.w3.org/2000/svg">
<path d="M21.5 43C25.7523 43 29.9091 41.739 33.4448 39.3766C36.9804 37.0141 39.7361 33.6563 41.3634 29.7277C42.9907 25.7991 43.4165 21.4761 42.5869 17.3056C41.7573 13.135 39.7096 9.30403 36.7028 6.2972C33.696 3.29038 29.865 1.2427 25.6944 0.413116C21.5239 -0.416466 17.2009 0.00930597 13.2723 1.63659C9.34369 3.26387 5.98585 6.01958 3.6234 9.55524C1.26095 13.0909 -5.07082e-08 17.2477 0 21.5L21.5 21.5L21.5 43Z" fill="#DCE0DE"/>
<rect y="23.2433" width="19.7568" height="19.7568" fill="#FFB531"/>
</svg>
