<svg width="250" height="250" viewBox="0 0 250 250" fill="none" xmlns="http://www.w3.org/2000/svg">
<rect width="250" height="250" fill="white"/>
<path d="M65.5 111L55 115L70 120.404L55 131.5V138.5" stroke="#FFB531" stroke-width="7" stroke-linecap="round" stroke-linejoin="round"/>
<path d="M90.814 123.348H89.068V131.25H86.512V123.348H85.378V121.278H86.512V120.774C86.512 119.55 86.86 118.65 87.556 118.074C88.252 117.498 89.302 117.228 90.706 117.264V119.388C90.094 119.376 89.668 119.478 89.428 119.694C89.188 119.91 89.068 120.3 89.068 120.864V121.278H90.814V123.348ZM93.7251 120.09C93.2811 120.09 92.9091 119.952 92.6091 119.676C92.3211 119.388 92.1771 119.034 92.1771 118.614C92.1771 118.194 92.3211 117.846 92.6091 117.57C92.9091 117.282 93.2811 117.138 93.7251 117.138C94.1691 117.138 94.5351 117.282 94.8231 117.57C95.1231 117.846 95.2731 118.194 95.2731 118.614C95.2731 119.034 95.1231 119.388 94.8231 119.676C94.5351 119.952 94.1691 120.09 93.7251 120.09ZM94.9671 121.278V131.25H92.4471V121.278H94.9671ZM102.983 121.134C104.171 121.134 105.131 121.512 105.863 122.268C106.595 123.012 106.961 124.056 106.961 125.4V131.25H104.441V125.742C104.441 124.95 104.243 124.344 103.847 123.924C103.451 123.492 102.911 123.276 102.227 123.276C101.531 123.276 100.979 123.492 100.571 123.924C100.175 124.344 99.9768 124.95 99.9768 125.742V131.25H97.4568V121.278H99.9768V122.52C100.313 122.088 100.739 121.752 101.255 121.512C101.783 121.26 102.359 121.134 102.983 121.134ZM108.709 126.228C108.709 125.22 108.907 124.326 109.303 123.546C109.711 122.766 110.263 122.166 110.959 121.746C111.655 121.326 112.429 121.116 113.281 121.116C113.929 121.116 114.547 121.26 115.135 121.548C115.723 121.824 116.191 122.196 116.539 122.664V117.93H119.095V131.25H116.539V129.774C116.227 130.266 115.789 130.662 115.225 130.962C114.661 131.262 114.007 131.412 113.263 131.412C112.423 131.412 111.655 131.196 110.959 130.764C110.263 130.332 109.711 129.726 109.303 128.946C108.907 128.154 108.709 127.248 108.709 126.228ZM116.557 126.264C116.557 125.652 116.437 125.13 116.197 124.698C115.957 124.254 115.633 123.918 115.225 123.69C114.817 123.45 114.379 123.33 113.911 123.33C113.443 123.33 113.011 123.444 112.615 123.672C112.219 123.9 111.895 124.236 111.643 124.68C111.403 125.112 111.283 125.628 111.283 126.228C111.283 126.828 111.403 127.356 111.643 127.812C111.895 128.256 112.219 128.598 112.615 128.838C113.023 129.078 113.455 129.198 113.911 129.198C114.379 129.198 114.817 129.084 115.225 128.856C115.633 128.616 115.957 128.28 116.197 127.848C116.437 127.404 116.557 126.876 116.557 126.264ZM120.908 126.228C120.908 125.22 121.106 124.326 121.502 123.546C121.91 122.766 122.456 122.166 123.14 121.746C123.836 121.326 124.61 121.116 125.462 121.116C126.206 121.116 126.854 121.266 127.406 121.566C127.97 121.866 128.42 122.244 128.756 122.7V121.278H131.294V131.25H128.756V129.792C128.432 130.26 127.982 130.65 127.406 130.962C126.842 131.262 126.188 131.412 125.444 131.412C124.604 131.412 123.836 131.196 123.14 130.764C122.456 130.332 121.91 129.726 121.502 128.946C121.106 128.154 120.908 127.248 120.908 126.228ZM128.756 126.264C128.756 125.652 128.636 125.13 128.396 124.698C128.156 124.254 127.832 123.918 127.424 123.69C127.016 123.45 126.578 123.33 126.11 123.33C125.642 123.33 125.21 123.444 124.814 123.672C124.418 123.9 124.094 124.236 123.842 124.68C123.602 125.112 123.482 125.628 123.482 126.228C123.482 126.828 123.602 127.356 123.842 127.812C124.094 128.256 124.418 128.598 124.814 128.838C125.222 129.078 125.654 129.198 126.11 129.198C126.578 129.198 127.016 129.084 127.424 128.856C127.832 128.616 128.156 128.28 128.396 127.848C128.636 127.404 128.756 126.876 128.756 126.264ZM137.572 131.412C136.756 131.412 136.024 131.268 135.376 130.98C134.728 130.68 134.212 130.278 133.828 129.774C133.456 129.27 133.252 128.712 133.216 128.1H135.754C135.802 128.484 135.988 128.802 136.312 129.054C136.648 129.306 137.062 129.432 137.554 129.432C138.034 129.432 138.406 129.336 138.67 129.144C138.946 128.952 139.084 128.706 139.084 128.406C139.084 128.082 138.916 127.842 138.58 127.686C138.256 127.518 137.734 127.338 137.014 127.146C136.27 126.966 135.658 126.78 135.178 126.588C134.71 126.396 134.302 126.102 133.954 125.706C133.618 125.31 133.45 124.776 133.45 124.104C133.45 123.552 133.606 123.048 133.918 122.592C134.242 122.136 134.698 121.776 135.286 121.512C135.886 121.248 136.588 121.116 137.392 121.116C138.58 121.116 139.528 121.416 140.236 122.016C140.944 122.604 141.334 123.402 141.406 124.41H138.994C138.958 124.014 138.79 123.702 138.49 123.474C138.202 123.234 137.812 123.114 137.32 123.114C136.864 123.114 136.51 123.198 136.258 123.366C136.018 123.534 135.898 123.768 135.898 124.068C135.898 124.404 136.066 124.662 136.402 124.842C136.738 125.01 137.26 125.184 137.968 125.364C138.688 125.544 139.282 125.73 139.75 125.922C140.218 126.114 140.62 126.414 140.956 126.822C141.304 127.218 141.484 127.746 141.496 128.406C141.496 128.982 141.334 129.498 141.01 129.954C140.698 130.41 140.242 130.77 139.642 131.034C139.054 131.286 138.364 131.412 137.572 131.412ZM147.38 131.412C146.564 131.412 145.832 131.268 145.184 130.98C144.536 130.68 144.02 130.278 143.636 129.774C143.264 129.27 143.06 128.712 143.024 128.1H145.562C145.61 128.484 145.796 128.802 146.12 129.054C146.456 129.306 146.87 129.432 147.362 129.432C147.842 129.432 148.214 129.336 148.478 129.144C148.754 128.952 148.892 128.706 148.892 128.406C148.892 128.082 148.724 127.842 148.388 127.686C148.064 127.518 147.542 127.338 146.822 127.146C146.078 126.966 145.466 126.78 144.986 126.588C144.518 126.396 144.11 126.102 143.762 125.706C143.426 125.31 143.258 124.776 143.258 124.104C143.258 123.552 143.414 123.048 143.726 122.592C144.05 122.136 144.506 121.776 145.094 121.512C145.694 121.248 146.396 121.116 147.2 121.116C148.388 121.116 149.336 121.416 150.044 122.016C150.752 122.604 151.142 123.402 151.214 124.41H148.802C148.766 124.014 148.598 123.702 148.298 123.474C148.01 123.234 147.62 123.114 147.128 123.114C146.672 123.114 146.318 123.198 146.066 123.366C145.826 123.534 145.706 123.768 145.706 124.068C145.706 124.404 145.874 124.662 146.21 124.842C146.546 125.01 147.068 125.184 147.776 125.364C148.496 125.544 149.09 125.73 149.558 125.922C150.026 126.114 150.428 126.414 150.764 126.822C151.112 127.218 151.292 127.746 151.304 128.406C151.304 128.982 151.142 129.498 150.818 129.954C150.506 130.41 150.05 130.77 149.45 131.034C148.862 131.286 148.172 131.412 147.38 131.412ZM162.787 121.278V131.25H160.249V129.99C159.925 130.422 159.499 130.764 158.971 131.016C158.455 131.256 157.891 131.376 157.279 131.376C156.499 131.376 155.809 131.214 155.209 130.89C154.609 130.554 154.135 130.068 153.787 129.432C153.451 128.784 153.283 128.016 153.283 127.128V121.278H155.803V126.768C155.803 127.56 156.001 128.172 156.397 128.604C156.793 129.024 157.333 129.234 158.017 129.234C158.713 129.234 159.259 129.024 159.655 128.604C160.051 128.172 160.249 127.56 160.249 126.768V121.278H162.787ZM167.793 122.826C168.117 122.298 168.537 121.884 169.053 121.584C169.581 121.284 170.181 121.134 170.853 121.134V123.78H170.187C169.395 123.78 168.795 123.966 168.387 124.338C167.991 124.71 167.793 125.358 167.793 126.282V131.25H165.273V121.278H167.793V122.826ZM181.821 126.048C181.821 126.408 181.797 126.732 181.749 127.02H174.459C174.519 127.74 174.771 128.304 175.215 128.712C175.659 129.12 176.205 129.324 176.853 129.324C177.789 129.324 178.455 128.922 178.851 128.118H181.569C181.281 129.078 180.729 129.87 179.913 130.494C179.097 131.106 178.095 131.412 176.907 131.412C175.947 131.412 175.083 131.202 174.315 130.782C173.559 130.35 172.965 129.744 172.533 128.964C172.113 128.184 171.903 127.284 171.903 126.264C171.903 125.232 172.113 124.326 172.533 123.546C172.953 122.766 173.541 122.166 174.297 121.746C175.053 121.326 175.923 121.116 176.907 121.116C177.855 121.116 178.701 121.32 179.445 121.728C180.201 122.136 180.783 122.718 181.191 123.474C181.611 124.218 181.821 125.076 181.821 126.048ZM179.211 125.328C179.199 124.68 178.965 124.164 178.509 123.78C178.053 123.384 177.495 123.186 176.835 123.186C176.211 123.186 175.683 123.378 175.251 123.762C174.831 124.134 174.573 124.656 174.477 125.328H179.211ZM183.012 126.228C183.012 125.22 183.21 124.326 183.606 123.546C184.014 122.766 184.566 122.166 185.262 121.746C185.958 121.326 186.732 121.116 187.584 121.116C188.232 121.116 188.85 121.26 189.438 121.548C190.026 121.824 190.494 122.196 190.842 122.664V117.93H193.398V131.25H190.842V129.774C190.53 130.266 190.092 130.662 189.528 130.962C188.964 131.262 188.31 131.412 187.566 131.412C186.726 131.412 185.958 131.196 185.262 130.764C184.566 130.332 184.014 129.726 183.606 128.946C183.21 128.154 183.012 127.248 183.012 126.228ZM190.86 126.264C190.86 125.652 190.74 125.13 190.5 124.698C190.26 124.254 189.936 123.918 189.528 123.69C189.12 123.45 188.682 123.33 188.214 123.33C187.746 123.33 187.314 123.444 186.918 123.672C186.522 123.9 186.198 124.236 185.946 124.68C185.706 125.112 185.586 125.628 185.586 126.228C185.586 126.828 185.706 127.356 185.946 127.812C186.198 128.256 186.522 128.598 186.918 128.838C187.326 129.078 187.758 129.198 188.214 129.198C188.682 129.198 189.12 129.084 189.528 128.856C189.936 128.616 190.26 128.28 190.5 127.848C190.74 127.404 190.86 126.876 190.86 126.264Z" fill="#1B5060"/>
</svg>
