<svg width="1400" height="860" viewBox="0 0 1400 860" fill="none" xmlns="http://www.w3.org/2000/svg">
<g clip-path="url(#clip0)">
<rect width="1400" height="860" rx="16" fill="#FEF9F4"/>
<path d="M103 338C98.5817 338 94.9528 334.407 95.4566 330.017C96.1972 323.566 97.8334 317.236 100.328 311.212C103.846 302.719 109.002 295.003 115.503 288.503C122.003 282.002 129.719 276.846 138.212 273.328C144.236 270.833 150.566 269.197 157.017 268.457C161.407 267.953 165 271.582 165 276L165 330C165 334.418 161.418 338 157 338H103Z" fill="#DCE0DE"/>
<path d="M207 263C211.418 263 215.08 266.617 214.203 270.947C213.693 273.461 212.942 275.926 211.955 278.307C209.945 283.16 206.999 287.57 203.284 291.284C199.57 294.999 195.16 297.945 190.307 299.955C187.926 300.942 185.461 301.693 182.947 302.203C178.617 303.08 175 299.418 175 295L175 271C175 266.582 178.582 263 183 263H207Z" fill="#FEEBCD"/>
<path d="M1157 665C1161.42 665 1165.05 668.596 1164.48 672.978C1163.78 678.378 1162.37 683.674 1160.28 688.726C1157.16 696.249 1152.6 703.083 1146.84 708.841C1141.08 714.598 1134.25 719.165 1126.73 722.281C1121.67 724.373 1116.38 725.784 1110.98 726.485C1106.6 727.053 1103 723.418 1103 719L1103 673C1103 668.582 1106.58 665 1111 665H1157Z" fill="#FEEBCD"/>
<g opacity="0.1">
<path fill-rule="evenodd" clip-rule="evenodd" d="M1109 1170.23V526H792.222L441.153 957.593L714.546 1170.23L1109 1170.23Z" fill="#EAE8E3"/>
<path fill-rule="evenodd" clip-rule="evenodd" d="M491.618 814.291C565.445 814.291 625.294 874.14 625.294 947.967C625.294 1021.8 565.445 1081.64 491.618 1081.64C417.79 1081.64 357.941 1021.8 357.941 947.967C357.941 874.14 417.79 814.291 491.618 814.291Z" fill="#BFCBBA"/>
<path fill-rule="evenodd" clip-rule="evenodd" d="M718.825 689.026L608.283 825.104L581.642 807.41L692.251 667.845L718.825 689.026Z" fill="#FFB531"/>
<path fill-rule="evenodd" clip-rule="evenodd" d="M341.955 642.34L472.513 737.723L460.52 754.982L328.183 669.395L341.955 642.34Z" fill="#EAE8E3"/>
<rect width="87.3496" height="13.5345" transform="matrix(0.55779 -0.829982 -0.829982 -0.55779 578.547 725.173)" fill="#60BEBF"/>
<path fill-rule="evenodd" clip-rule="evenodd" d="M693.799 798.721L643.017 860.561L621.393 848.112L670.878 780.521L693.799 798.721Z" fill="#3A8EAA"/>
<path fill-rule="evenodd" clip-rule="evenodd" d="M1051.31 1262.73L524.639 894.332L550.605 860.401L1096.63 1206.45L1051.31 1262.73Z" fill="#2A3E4C"/>
<path fill-rule="evenodd" clip-rule="evenodd" d="M557.852 853.812L740.101 953.479L753.227 929.839L573.152 831.151L557.852 853.812Z" fill="#FFB531"/>
<rect width="204.174" height="27.0393" transform="matrix(0.765578 0.643343 0.643343 -0.765578 311.235 575.566)" fill="#EAE8E3"/>
<path fill-rule="evenodd" clip-rule="evenodd" d="M419.597 681.96L484.764 734.004L497.151 720.372L431.984 668.329L419.597 681.96Z" fill="#FFB531"/>
<rect width="508.923" height="11.4815" transform="matrix(0.621932 -0.783072 -0.783072 -0.621932 378.272 1051.04)" fill="#28203D"/>
<path fill-rule="evenodd" clip-rule="evenodd" d="M585.382 755.194L372.579 1013.27L339.262 991.578L548.671 727.635L585.382 755.194Z" fill="#849C9B"/>
<path fill-rule="evenodd" clip-rule="evenodd" d="M787.634 762.164C798.953 764.879 805.94 776.206 803.239 787.464C800.539 798.722 789.174 805.647 777.855 802.932C766.536 800.217 759.55 788.89 762.25 777.632C764.95 766.374 776.315 759.449 787.634 762.164Z" fill="#849C9B"/>
<path fill-rule="evenodd" clip-rule="evenodd" d="M350.722 765.84C371.106 770.73 383.688 791.129 378.825 811.403C373.962 831.677 353.495 844.149 333.111 839.26C312.727 834.37 300.145 813.971 305.008 793.697C309.871 773.423 330.338 760.951 350.722 765.84Z" fill="#EAE8E3"/>
<path fill-rule="evenodd" clip-rule="evenodd" d="M425.049 766.587C433.874 768.704 439.321 777.535 437.216 786.313C435.11 795.091 426.249 800.49 417.424 798.373C408.599 796.257 403.152 787.425 405.257 778.647C407.363 769.87 416.224 764.47 425.049 766.587Z" fill="#BFCBBA"/>
<path d="M827.333 680.842L905.024 589.756L907.883 592.194L830.192 683.28L827.333 680.842Z" fill="#28203D"/>
<path d="M390.752 662.466L292 582.618L293.409 580.875L392.161 660.724L390.752 662.466Z" fill="#28203D"/>
<path fill-rule="evenodd" clip-rule="evenodd" d="M898.587 761.361L877.759 785.32L875.897 783.701L896.725 759.741L872.765 738.913L874.384 737.051L898.344 757.879L919.172 733.919L921.034 735.538L900.206 759.498L924.166 780.326L922.547 782.188L898.587 761.361Z" fill="#FFB531"/>
<path fill-rule="evenodd" clip-rule="evenodd" d="M342.248 802.489L331.523 814.828L330.563 813.994L341.289 801.655L328.951 790.93L329.784 789.971L342.123 800.696L352.848 788.358L353.807 789.192L343.082 801.53L355.42 812.256L354.586 813.215L342.248 802.489Z" fill="#FFB531"/>
</g>
<path d="M1068.63 336.657C1071.75 333.533 1076.9 333.5 1079.34 337.183C1080.76 339.321 1081.97 341.596 1082.96 343.977C1084.97 348.83 1086 354.031 1086 359.284C1086 364.537 1084.97 369.739 1082.96 374.592C1081.97 376.973 1080.76 379.247 1079.34 381.385C1076.9 385.068 1071.75 385.036 1068.63 381.912L1051.66 364.941C1048.53 361.817 1048.53 356.752 1051.66 353.627L1068.63 336.657Z" fill="#DCE0DE"/>
</g>
<defs>
<clipPath id="clip0">
<rect width="1400" height="860" rx="16" fill="white"/>
</clipPath>
</defs>
</svg>
