<svg width="32" height="32" viewBox="0 0 32 32" fill="none" xmlns="http://www.w3.org/2000/svg">
<path d="M20.6667 18C20.6667 20.6666 17.3333 22.6666 17.3333 24.6666H14.6667C14.6667 22.6666 11.3333 20.6666 11.3333 18C11.3333 15.4266 13.4267 13.3333 16 13.3333C18.5733 13.3333 20.6667 15.4266 20.6667 18ZM17.3333 26H14.6667V28H17.3333V26ZM25.3333 17.3333C25.3333 19.5733 24.5467 21.6133 23.2267 23.2266L25.12 25.12C26.1452 23.9235 26.9241 22.5365 27.4121 21.0384C27.9001 19.5402 28.0875 17.9605 27.9636 16.3898C27.8398 14.8191 27.407 13.2883 26.6902 11.8852C25.9735 10.4821 24.9867 9.23425 23.7867 8.21331L21.8933 10.1066C22.9673 10.9803 23.8332 12.0821 24.4282 13.3321C25.0232 14.5821 25.3324 15.9489 25.3333 17.3333ZM21.3333 6.66665L16 1.33331V5.33331C12.8174 5.33331 9.76515 6.59759 7.51472 8.84803C5.26428 11.0985 4 14.1507 4 17.3333C4 20.3066 5.09333 23.0266 6.88 25.12L8.77333 23.2266C7.40773 21.5666 6.66285 19.4829 6.66667 17.3333C6.66667 12.1866 10.8533 7.99998 16 7.99998V12L21.3333 6.66665Z" fill="#FFB531"/>
</svg>
