<svg width="698" height="705" viewBox="0 0 698 705" fill="none" xmlns="http://www.w3.org/2000/svg">
<g clip-path="url(#clip0)">
<path d="M261.823 302.304C261.518 302.303 261.224 302.187 261 301.979C260.777 301.77 260.641 301.485 260.62 301.18C259.83 290.447 255.017 280.409 247.143 273.073C239.269 265.737 228.916 261.645 218.155 261.616C216.867 261.616 215.514 261.682 214.133 261.811C213.903 261.833 213.67 261.787 213.464 261.681C213.259 261.574 213.088 261.41 212.973 261.209C208.03 252.556 200.648 245.551 191.749 241.067C182.849 236.583 172.827 234.82 162.932 235.997C153.037 237.174 143.708 241.239 136.108 247.685C128.509 254.131 122.976 262.672 120.2 272.243C120.127 272.5 119.971 272.724 119.756 272.882C119.541 273.04 119.279 273.122 119.012 273.115L118.691 273.105C118.524 273.099 118.357 273.093 118.189 273.093C110.027 273.119 102.119 275.935 95.7766 281.073C89.4348 286.212 85.0404 293.365 83.3227 301.345C83.2655 301.616 83.1169 301.859 82.9016 302.034C82.6864 302.208 82.4177 302.304 82.1406 302.304H1.20808C0.888244 302.303 0.581797 302.175 0.355937 301.949C0.130076 301.722 0.00323486 301.415 0.00323486 301.096C0.00323486 300.776 0.130076 300.469 0.355937 300.242C0.581797 300.016 0.888244 299.888 1.20808 299.887H81.1738C83.1869 291.587 87.922 284.2 94.6235 278.906C101.325 273.612 109.607 270.715 118.147 270.677C121.187 260.842 127.019 252.101 134.932 245.517C142.845 238.933 152.5 234.789 162.724 233.588C172.947 232.388 183.3 234.182 192.523 238.753C201.746 243.325 209.444 250.476 214.68 259.339C215.868 259.247 217.034 259.2 218.155 259.2C229.527 259.231 240.468 263.555 248.788 271.308C257.109 279.06 262.195 289.669 263.03 301.011C263.041 301.169 263.021 301.328 262.97 301.479C262.92 301.629 262.841 301.768 262.737 301.888C262.633 302.008 262.506 302.106 262.364 302.177C262.222 302.247 262.067 302.29 261.909 302.301C261.88 302.303 261.852 302.304 261.823 302.304Z" fill="#CBCBCB"/>
<path d="M247.45 317.794H49.3301C49.0097 317.794 48.7025 317.666 48.4759 317.44C48.2493 317.213 48.1221 316.906 48.1221 316.586C48.1221 316.265 48.2493 315.958 48.4759 315.731C48.7025 315.505 49.0097 315.378 49.3301 315.378H247.45C247.77 315.378 248.077 315.505 248.304 315.731C248.531 315.958 248.658 316.265 248.658 316.586C248.658 316.906 248.531 317.213 248.304 317.44C248.077 317.666 247.77 317.794 247.45 317.794Z" fill="#CBCBCB"/>
<path d="M97.652 335.311H31.2094C31.0505 335.312 30.8931 335.281 30.7461 335.22C30.5992 335.16 30.4656 335.071 30.3531 334.959C30.2406 334.847 30.1513 334.713 30.0904 334.566C30.0295 334.42 29.9982 334.262 29.9982 334.103C29.9982 333.944 30.0295 333.787 30.0904 333.64C30.1513 333.494 30.2406 333.36 30.3531 333.248C30.4656 333.136 30.5992 333.047 30.7461 332.986C30.8931 332.926 31.0505 332.895 31.2094 332.895H97.652C97.9719 332.896 98.2783 333.024 98.5042 333.25C98.73 333.477 98.8569 333.784 98.8569 334.103C98.8569 334.423 98.73 334.73 98.5042 334.956C98.2783 335.183 97.9719 335.311 97.652 335.311Z" fill="#CBCBCB"/>
<path d="M159.773 570.379C159.773 619.495 108.283 642.997 108.283 642.997C108.283 642.997 56.2652 619.495 55.209 570.379C54.5882 541.509 78.6164 518.094 107.491 518.094C114.357 518.094 121.155 519.446 127.498 522.074C133.841 524.702 139.605 528.553 144.46 533.408C149.314 538.263 153.166 544.027 155.793 550.37C158.42 556.714 159.773 563.513 159.773 570.379Z" fill="#E5E5E5"/>
<path d="M125.711 645.901H90.8558L86.6307 629.001H129.935L125.711 645.901Z" fill="#CBCBCB"/>
<path d="M124.522 674.804H92.044V691.73H124.522V674.804Z" fill="white"/>
<path d="M124.786 691.994H91.7799V674.54H124.786V691.994ZM92.3081 691.466H124.258V675.068H92.3081V691.466Z" fill="#CBCBCB"/>
<path d="M114.941 647.895H101.626L100.098 645.493H116.469L114.941 647.895Z" fill="#CBCBCB"/>
<path d="M91.6479 645.902H91.1198V671.78H91.6479V645.902Z" fill="#CBCBCB"/>
<path d="M125.446 645.902H124.918V671.78H125.446V645.902Z" fill="#CBCBCB"/>
<path d="M113.577 628.715L113.254 628.297C128.51 616.531 146.697 596.375 146.697 567.165C146.709 556.935 143.7 546.928 138.048 538.401C132.397 529.874 124.353 523.206 114.926 519.232L115.132 518.746C124.654 522.76 132.78 529.496 138.489 538.109C144.198 546.723 147.237 556.831 147.225 567.165C147.225 596.589 128.927 616.877 113.577 628.715Z" fill="#CBCBCB"/>
<path d="M96.6772 628.715L96.3547 628.297C111.611 616.531 129.798 596.375 129.798 567.165C129.802 557.003 126.829 547.063 121.247 538.572C115.666 530.081 107.719 523.411 98.3891 519.387L98.5984 518.902C108.023 522.967 116.05 529.705 121.689 538.282C127.327 546.859 130.33 556.9 130.326 567.165C130.326 596.589 112.027 616.877 96.6772 628.715Z" fill="#CBCBCB"/>
<path d="M118.304 628.715C102.954 616.877 84.6563 596.589 84.6563 567.165C84.6521 556.9 87.6547 546.859 93.2932 538.282C98.9317 529.705 106.959 522.967 116.384 518.902L116.593 519.387C107.263 523.411 99.3164 530.081 93.7345 538.572C88.1527 547.063 85.1802 557.003 85.1843 567.165C85.1843 596.375 103.371 616.531 118.627 628.297L118.304 628.715Z" fill="#CBCBCB"/>
<path d="M101.405 628.715C86.0551 616.877 67.757 596.589 67.757 567.165C67.7398 556.79 70.8002 546.643 76.551 538.008C82.3018 529.373 90.4846 522.638 100.064 518.656L100.268 519.143C90.7844 523.086 82.6838 529.753 76.9908 538.301C71.2977 546.849 68.268 556.894 68.2851 567.165C68.2851 596.375 86.4714 616.531 101.728 628.297L101.405 628.715Z" fill="#CBCBCB"/>
<path d="M107.755 518.094H107.227V629.001H107.755V518.094Z" fill="#CBCBCB"/>
<path d="M101.541 670.966L91.8573 680.651L92.2307 681.024L101.914 671.34L101.541 670.966Z" fill="#CBCBCB"/>
<path d="M106.249 670.805L91.8536 685.946L92.2362 686.31L106.631 671.169L106.249 670.805Z" fill="#CBCBCB"/>
<path d="M127.559 670.988H87.9512V675.741H127.559V670.988Z" fill="white"/>
<path d="M127.823 676.005H87.6872V670.724H127.823V676.005ZM88.2153 675.477H127.295V671.252H88.2153V675.477Z" fill="#CBCBCB"/>
<path d="M259.42 445.904C259.42 478.323 225.435 493.835 225.435 493.835C225.435 493.835 191.101 478.323 190.403 445.904C189.994 426.849 205.853 411.393 224.912 411.393C234.064 411.393 242.841 415.029 249.313 421.501C255.784 427.973 259.42 436.751 259.42 445.904Z" fill="#E5E5E5"/>
<path d="M236.937 495.752H213.931L211.143 484.597H239.726L236.937 495.752Z" fill="#CBCBCB"/>
<path d="M236.153 514.829H214.716V526.001H236.153V514.829Z" fill="white"/>
<path d="M236.327 526.175H214.542V514.654H236.327V526.175ZM214.89 525.826H235.979V515.003H214.89V525.826Z" fill="#CBCBCB"/>
<path d="M229.829 497.067H221.04L220.031 495.482H230.837L229.829 497.067Z" fill="#CBCBCB"/>
<path d="M214.455 495.752H214.106V512.833H214.455V495.752Z" fill="#CBCBCB"/>
<path d="M236.763 495.752H236.414V512.833H236.763V495.752Z" fill="#CBCBCB"/>
<path d="M228.928 484.408L228.716 484.132C238.785 476.366 250.789 463.062 250.789 443.782C250.797 437.03 248.811 430.425 245.081 424.797C241.351 419.169 236.041 414.767 229.819 412.145L229.955 411.824C236.24 414.473 241.603 418.919 245.372 424.604C249.14 430.29 251.146 436.961 251.138 443.782C251.138 463.204 239.06 476.594 228.928 484.408Z" fill="#CBCBCB"/>
<path d="M217.774 484.408L217.561 484.132C227.631 476.366 239.635 463.062 239.635 443.782C239.638 437.075 237.676 430.514 233.992 424.91C230.307 419.305 225.062 414.903 218.904 412.247L219.042 411.927C225.263 414.61 230.561 419.057 234.283 424.718C238.004 430.38 239.986 437.007 239.983 443.782C239.984 463.204 227.906 476.595 217.774 484.408Z" fill="#CBCBCB"/>
<path d="M232.049 484.408C221.917 476.595 209.84 463.204 209.84 443.782C209.837 437.007 211.819 430.38 215.541 424.718C219.262 419.057 224.561 414.61 230.781 411.927L230.92 412.247C224.761 414.903 219.516 419.305 215.832 424.91C212.148 430.514 210.186 437.075 210.188 443.782C210.188 463.062 222.192 476.366 232.262 484.132L232.049 484.408Z" fill="#CBCBCB"/>
<path d="M220.895 484.408C210.763 476.595 198.686 463.204 198.686 443.782C198.674 436.934 200.694 430.237 204.49 424.538C208.286 418.838 213.687 414.393 220.01 411.764L220.144 412.086C213.885 414.688 208.538 419.089 204.78 424.731C201.023 430.373 199.023 437.003 199.034 443.782C199.034 463.062 211.038 476.366 221.108 484.132L220.895 484.408Z" fill="#CBCBCB"/>
<path d="M225.086 411.393H224.737V484.597H225.086V411.393Z" fill="#CBCBCB"/>
<path d="M220.985 512.296L214.593 518.688L214.839 518.934L221.231 512.542L220.985 512.296Z" fill="#CBCBCB"/>
<path d="M224.092 512.189L214.59 522.183L214.843 522.423L224.344 512.429L224.092 512.189Z" fill="#CBCBCB"/>
<path d="M238.157 512.31H212.015V515.447H238.157V512.31Z" fill="white"/>
<path d="M238.332 515.622H211.84V512.136H238.332V515.622ZM212.189 515.273H237.983V512.484H212.189V515.273Z" fill="#CBCBCB"/>
<path d="M548.328 490.226C548.547 490.226 548.758 490.143 548.918 489.993C549.078 489.844 549.176 489.639 549.191 489.421C549.757 481.728 553.207 474.532 558.851 469.274C564.495 464.016 571.916 461.083 579.629 461.062C580.553 461.062 581.522 461.109 582.512 461.202C582.677 461.217 582.844 461.185 582.991 461.108C583.139 461.032 583.261 460.914 583.344 460.77C586.887 454.568 592.178 449.546 598.557 446.332C604.936 443.119 612.12 441.855 619.212 442.698C626.305 443.542 632.992 446.456 638.439 451.076C643.886 455.697 647.852 461.819 649.842 468.679C649.894 468.863 650.007 469.024 650.161 469.137C650.315 469.25 650.502 469.309 650.693 469.304L650.924 469.297C651.043 469.293 651.163 469.289 651.284 469.289C657.134 469.307 662.803 471.325 667.349 475.009C671.894 478.692 675.044 483.819 676.275 489.539C676.316 489.733 676.423 489.908 676.577 490.033C676.731 490.158 676.924 490.226 677.123 490.226H735.134C735.248 490.226 735.361 490.204 735.466 490.161C735.572 490.118 735.667 490.054 735.748 489.973C735.829 489.893 735.893 489.797 735.937 489.692C735.98 489.587 736.003 489.474 736.003 489.36C736.003 489.246 735.98 489.133 735.937 489.028C735.893 488.923 735.829 488.827 735.748 488.747C735.667 488.666 735.572 488.603 735.466 488.559C735.361 488.516 735.248 488.494 735.134 488.494H677.816C676.373 482.545 672.979 477.25 668.175 473.455C663.372 469.66 657.435 467.583 651.314 467.557C649.134 460.507 644.955 454.242 639.283 449.522C633.611 444.803 626.69 441.833 619.362 440.972C612.034 440.111 604.613 441.397 598.002 444.674C591.391 447.951 585.873 453.077 582.12 459.43C581.268 459.363 580.433 459.33 579.629 459.33C571.478 459.352 563.636 462.452 557.672 468.009C551.708 473.565 548.062 481.17 547.464 489.3C547.456 489.413 547.47 489.527 547.506 489.635C547.542 489.743 547.599 489.842 547.674 489.928C547.748 490.014 547.839 490.084 547.941 490.135C548.043 490.186 548.153 490.216 548.267 490.224C548.287 490.225 548.308 490.226 548.328 490.226Z" fill="#CBCBCB"/>
<path d="M558.631 501.329H700.641C700.87 501.329 701.091 501.238 701.253 501.076C701.415 500.913 701.507 500.693 701.507 500.463C701.507 500.234 701.415 500.013 701.253 499.851C701.091 499.689 700.87 499.597 700.641 499.597H558.631C558.401 499.597 558.181 499.689 558.019 499.851C557.856 500.013 557.765 500.234 557.765 500.463C557.765 500.693 557.856 500.913 558.019 501.076C558.181 501.238 558.401 501.329 558.631 501.329Z" fill="#CBCBCB"/>
<path d="M666.004 513.886H713.63C713.859 513.885 714.078 513.794 714.24 513.631C714.402 513.469 714.493 513.249 714.493 513.02C714.493 512.791 714.402 512.571 714.24 512.408C714.078 512.246 713.859 512.155 713.63 512.154H666.004C665.891 512.154 665.778 512.176 665.673 512.22C665.568 512.263 665.472 512.327 665.392 512.408C665.312 512.488 665.248 512.583 665.204 512.688C665.161 512.794 665.138 512.906 665.138 513.02C665.138 513.134 665.161 513.246 665.204 513.351C665.248 513.456 665.312 513.552 665.392 513.632C665.472 513.713 665.568 513.776 665.673 513.82C665.778 513.863 665.891 513.886 666.004 513.886Z" fill="#CBCBCB"/>
<path d="M445.443 720.563L445.394 720.563C444.007 720.559 442.622 720.479 441.244 720.324C440.719 720.272 440.149 720.216 439.463 720.16L439.439 720.155C438.971 720.016 438.958 715.624 439.156 700.588C439.258 692.887 439.373 684.158 439.236 678.6L439.235 678.545L439.276 678.509C441.755 676.336 444.713 674.78 447.909 673.968C451.104 673.157 454.447 673.113 457.662 673.841L457.712 673.851L457.739 673.896C460.54 678.636 464.77 685.464 468.86 692.067C478.25 707.225 480.935 711.683 480.641 712.019L480.605 712.046C479.964 712.367 479.483 712.614 479.074 712.824C477.453 713.663 475.789 714.414 474.088 715.073L474.013 715.104L473.958 715.043C464.43 704.603 456.502 692.94 451.598 682.159C451.025 685.839 450.329 690.646 449.594 695.724C447.481 710.327 446.052 719.943 445.477 720.528L445.443 720.563Z" fill="#2F2E41"/>
<path d="M448.01 679.723C453.691 679.698 459.335 680.643 464.698 682.517C464.885 673.513 461.867 664.735 456.182 657.75L456.14 657.7L456.162 657.638C457.658 653.313 459.205 648.843 460.588 644.395L460.567 644.321C459.597 640.874 457.516 637.391 454.206 633.673C453.846 633.301 453.359 633.079 452.843 633.053C452.326 633.027 451.819 633.198 451.424 633.532C448.523 636.185 446.264 639.463 444.817 643.118C443.37 646.773 442.774 650.709 443.073 654.629L443.075 654.652L443.069 654.673C440.476 663.457 439.535 667.969 438.705 671.949C438.099 674.853 437.574 677.367 436.521 680.96C440.296 680.139 444.147 679.724 448.01 679.723Z" fill="#CBCBCB"/>
<path opacity="0.1" d="M456.374 651.956L447.94 670.318L443.121 665.441L456.374 651.956Z" fill="black"/>
<path d="M452.768 631.885C456.082 631.885 458.769 629.199 458.769 625.884C458.769 622.57 456.082 619.884 452.768 619.884C449.454 619.884 446.768 622.57 446.768 625.884C446.768 629.199 449.454 631.885 452.768 631.885Z" fill="#9F616A"/>
<path d="M445.493 622.495H455.021V618.341C452.929 617.51 450.883 616.804 449.646 618.341C448.544 618.341 447.488 618.779 446.709 619.558C445.93 620.337 445.493 621.393 445.493 622.495Z" fill="#222222"/>
<path d="M455.548 617.608C461.244 617.608 462.839 624.748 462.839 628.777C462.839 631.023 461.823 631.826 460.226 632.098L459.663 629.091L458.342 632.228C457.894 632.23 457.423 632.221 456.934 632.212L456.487 631.29L455.488 632.196C451.49 632.202 448.258 632.785 448.258 628.777C448.258 624.748 449.656 617.608 455.548 617.608Z" fill="#222222"/>
<path d="M627.602 340.37C627.602 498.536 461.792 574.217 461.792 574.217C461.792 574.217 294.282 498.536 290.881 340.37C288.882 247.403 366.259 172 459.241 172C552.224 172 627.602 247.382 627.602 340.37Z" fill="#3FA2F7"/>
<path d="M478.036 681.437C477.659 681.195 477.34 680.873 477.101 680.495C476.863 680.116 476.71 679.689 476.654 679.245C476.598 678.801 476.64 678.35 476.777 677.924C476.914 677.497 477.143 677.106 477.448 676.778L475.146 644.118L481.775 644.761L481.957 676.745C482.475 677.293 482.773 678.012 482.796 678.766C482.818 679.519 482.564 680.255 482.081 680.833C481.597 681.412 480.918 681.793 480.173 681.904C479.427 682.015 478.667 681.849 478.036 681.437Z" fill="#EACDC2"/>
<path d="M465.184 714.798L461.336 714.614C461.009 714.599 460.699 714.458 460.472 714.222C460.245 713.985 460.117 713.67 460.114 713.342L459.846 674.411C459.845 674.226 459.883 674.043 459.959 673.874C460.035 673.706 460.147 673.556 460.286 673.434C460.425 673.313 460.589 673.223 460.767 673.171C460.944 673.119 461.13 673.105 461.313 673.132L476.705 675.366C477.01 675.409 477.288 675.56 477.49 675.791C477.692 676.023 477.803 676.319 477.804 676.626L479.784 712.701C479.785 712.87 479.753 713.038 479.689 713.194C479.625 713.351 479.531 713.494 479.411 713.614C479.292 713.734 479.15 713.83 478.994 713.895C478.838 713.96 478.67 713.993 478.501 713.993H474.353C474.047 713.994 473.751 713.886 473.518 713.687C473.285 713.488 473.132 713.212 473.086 712.91C473.086 712.91 469.953 685.851 469.522 685.867C469.09 685.875 466.519 713.669 466.519 713.669C466.48 713.98 466.33 714.267 466.095 714.475C465.861 714.683 465.558 714.798 465.245 714.799C465.225 714.799 465.204 714.799 465.184 714.798Z" fill="#2F2E41"/>
<path d="M476.647 655.092C476.492 654.981 476.364 654.836 476.272 654.668C476.18 654.5 476.127 654.314 476.117 654.123L475.631 645.32C475.583 644.448 475.86 643.589 476.408 642.909C476.955 642.229 477.736 641.775 478.598 641.636C479.46 641.497 480.343 641.682 481.077 642.156C481.811 642.629 482.343 643.358 482.572 644.201L484.706 652.071C484.794 652.399 484.749 652.749 484.58 653.045C484.411 653.34 484.131 653.555 483.803 653.645L477.734 655.291C477.549 655.341 477.356 655.349 477.168 655.315C476.98 655.281 476.802 655.205 476.647 655.092Z" fill="#222222"/>
<path d="M470.977 634.172C474.844 634.172 477.979 631.037 477.979 627.17C477.979 623.303 474.844 620.168 470.977 620.168C467.11 620.168 463.976 623.303 463.976 627.17C463.976 631.037 467.11 634.172 470.977 634.172Z" fill="#EACDC2"/>
<path d="M475.932 632.71C475.639 633.025 475.263 633.251 474.846 633.36C474.43 633.469 473.991 633.457 473.581 633.325C473.171 633.193 472.807 632.946 472.533 632.615C472.258 632.283 472.083 631.88 472.03 631.453C472.017 631.306 472.018 631.157 472.033 631.01C472.121 630.168 472.607 629.403 472.491 628.514C472.464 628.293 472.382 628.082 472.251 627.902C471.21 626.508 468.767 628.525 467.784 627.263C467.182 626.489 467.89 625.271 467.428 624.406C466.818 623.265 465.011 623.828 463.878 623.203C462.617 622.507 462.692 620.573 463.522 619.396C464.062 618.701 464.749 618.133 465.534 617.734C466.318 617.334 467.182 617.113 468.062 617.085C469.824 617.044 471.574 617.385 473.191 618.086C475.101 618.707 476.786 619.876 478.037 621.447C478.685 622.477 479.095 623.638 479.239 624.846C479.382 626.054 479.255 627.279 478.867 628.432C478.443 629.846 476.999 631.573 475.932 632.71Z" fill="#222222"/>
<path d="M477.966 638.849C477.844 638.762 477.72 638.676 477.594 638.592C476.922 638.145 476.194 637.788 475.429 637.53V635.69H470.012V637.397C468.217 637.893 466.606 638.905 465.382 640.308C464.157 641.712 463.372 643.444 463.124 645.29L459.436 672.674C459.412 672.845 459.423 673.019 459.469 673.186C459.515 673.353 459.593 673.508 459.701 673.644C459.806 673.778 459.938 673.889 460.087 673.971C460.237 674.053 460.402 674.104 460.572 674.121C463.156 674.455 465.646 675.308 467.892 676.628C469.524 677.532 471.36 678.001 473.225 677.989C474.705 677.984 476.174 677.722 477.565 677.216C477.801 677.129 478.006 676.975 478.154 676.771C478.302 676.568 478.387 676.326 478.397 676.075C478.53 673.128 479.307 657.959 481.568 648.706C482.008 646.891 481.901 644.986 481.259 643.232C480.618 641.478 479.472 639.953 477.966 638.849Z" fill="#222222"/>
<path d="M517.912 583.571H405.672L392.067 529.149H531.517L517.912 583.571Z" fill="#E5E5E5"/>
<path d="M514.086 676.643H409.499V731.15H514.086V676.643Z" fill="white"/>
<path d="M514.936 732H408.648V675.793H514.936V732ZM410.349 730.299H513.236V677.493H410.349V730.299Z" fill="#CBCBCB"/>
<path d="M483.231 589.989H440.354L435.433 582.256H488.152L483.231 589.989Z" fill="#CBCBCB"/>
<path d="M408.223 583.571H406.523V666.906H408.223V583.571Z" fill="#CBCBCB"/>
<path d="M517.062 583.571H515.361V666.906H517.062V583.571Z" fill="#CBCBCB"/>
<path d="M478.839 528.227L477.8 526.88C526.929 488.991 585.493 424.082 585.493 330.02C585.533 297.076 575.845 264.854 557.644 237.394C539.444 209.935 513.542 188.46 483.186 175.665L483.848 174.098C514.512 187.024 540.677 208.716 559.062 236.454C577.447 264.192 587.234 296.742 587.194 330.02C587.194 424.773 528.27 490.105 478.839 528.227Z" fill="#FAFAFA"/>
<path d="M424.419 528.227L423.38 526.88C472.51 488.992 531.074 424.083 531.074 330.02C531.087 297.298 521.515 265.288 503.541 237.945C485.566 210.602 459.976 189.123 429.931 176.163L430.605 174.601C460.955 187.694 486.805 209.39 504.962 237.01C523.119 264.631 532.788 296.965 532.775 330.02C532.775 424.774 473.85 490.106 424.419 528.227Z" fill="#FAFAFA"/>
<path d="M494.064 528.227C444.632 490.105 385.708 424.773 385.708 330.02C385.695 296.965 395.364 264.63 413.521 237.01C431.679 209.389 457.529 187.693 487.879 174.601L488.553 176.162C458.508 189.123 432.918 210.601 414.943 237.944C396.968 265.287 387.395 297.297 387.409 330.02C387.409 424.082 445.973 488.991 495.102 526.88L494.064 528.227Z" fill="#FAFAFA"/>
<path d="M439.644 528.227C390.213 490.105 331.289 424.774 331.289 330.02C331.233 296.611 341.088 263.935 359.607 236.129C378.127 208.322 404.477 186.634 435.325 173.808L435.981 175.378C405.443 188.074 379.357 209.545 361.024 237.072C342.691 264.599 332.934 296.946 332.989 330.02C332.989 424.083 391.554 488.992 440.683 526.88L439.644 528.227Z" fill="#FAFAFA"/>
<path d="M460.092 172H458.391V529.149H460.092V172Z" fill="#FAFAFA"/>
<path d="M440.082 664.285L408.897 695.471L410.1 696.674L441.284 665.488L440.082 664.285Z" fill="#CBCBCB"/>
<path d="M455.241 663.766L408.885 712.523L410.118 713.695L456.474 664.938L455.241 663.766Z" fill="#CBCBCB"/>
<path d="M523.865 664.355H396.319V679.661H523.865V664.355Z" fill="white"/>
<path d="M524.715 680.512H395.469V663.505H524.715V680.512ZM397.169 678.811H523.014V665.205H397.169V678.811Z" fill="#CBCBCB"/>
<path d="M437.571 671.474C437.912 671.45 438.243 671.352 438.542 671.186C438.841 671.021 439.1 670.791 439.301 670.515C439.501 670.238 439.639 669.921 439.704 669.585C439.769 669.249 439.759 668.904 439.676 668.572L446.625 664.019L442.662 662.306L436.67 666.893C436.123 667.07 435.659 667.441 435.367 667.937C435.075 668.433 434.975 669.019 435.086 669.583C435.197 670.148 435.511 670.652 435.969 671.001C436.427 671.349 436.997 671.518 437.571 671.474H437.571Z" fill="#9F616A"/>
<path d="M444.258 668.194L444.17 668.132C442.516 666.914 440.68 665.655 438.904 664.438L438.798 664.365L438.882 664.266C442.672 659.832 446.466 655.2 450.135 650.719L450.128 650.703L450.163 650.686L450.178 650.668L450.185 650.674L450.208 650.663L450.108 650.671L448.976 641.8C448.417 640.878 448.131 639.815 448.152 638.736C448.174 637.657 448.502 636.607 449.098 635.707C449.784 634.737 450.805 634.054 451.963 633.789C453.122 633.525 454.338 633.697 455.377 634.273C455.89 634.618 456.319 635.073 456.632 635.606C456.945 636.138 457.135 636.735 457.186 637.35C457.259 637.899 457.208 638.457 457.038 638.983C456.867 639.51 456.582 639.992 456.201 640.393C456.592 644.698 456.765 649.02 456.718 653.343L456.718 653.384L456.693 653.417C452.781 658.387 448.484 663.331 444.328 668.113L444.258 668.194Z" fill="#CBCBCB"/>
<path d="M445.604 640.927C445.639 641.081 445.662 641.237 445.673 641.395L457.919 648.46L460.895 646.746L464.069 650.9L457.701 655.439L443.73 644.417C443.16 644.628 442.539 644.66 441.951 644.51C441.362 644.359 440.833 644.033 440.434 643.575C440.035 643.117 439.786 642.548 439.718 641.944C439.65 641.34 439.768 640.73 440.056 640.195C440.343 639.659 440.787 639.224 441.328 638.947C441.868 638.67 442.481 638.565 443.083 638.644C443.685 638.724 444.249 638.985 444.7 639.392C445.15 639.8 445.466 640.335 445.604 640.927H445.604Z" fill="#EACDC2"/>
<path d="M458.356 647.859C458.336 647.669 458.358 647.477 458.422 647.296C458.486 647.116 458.589 646.952 458.725 646.817L464.958 640.583C465.575 639.965 466.399 639.598 467.272 639.552C468.144 639.506 469.002 639.785 469.681 640.335C470.36 640.884 470.811 641.666 470.948 642.528C471.085 643.391 470.897 644.274 470.422 645.006L465.983 651.846C465.798 652.132 465.507 652.331 465.174 652.402C464.842 652.473 464.494 652.409 464.209 652.224L458.934 648.801C458.773 648.697 458.638 648.558 458.538 648.395C458.438 648.232 458.376 648.049 458.356 647.859Z" fill="#222222"/>
<path d="M373.556 587.166C373.337 587.166 373.126 587.083 372.966 586.934C372.806 586.784 372.708 586.58 372.693 586.361C372.127 578.668 368.677 571.472 363.033 566.214C357.389 560.956 349.968 558.023 342.254 558.002C341.331 558.002 340.362 558.049 339.372 558.142C339.207 558.157 339.04 558.125 338.893 558.048C338.745 557.972 338.623 557.854 338.54 557.71C334.997 551.508 329.706 546.487 323.327 543.273C316.948 540.059 309.764 538.795 302.672 539.639C295.579 540.482 288.892 543.396 283.445 548.016C277.998 552.637 274.032 558.759 272.042 565.619C271.99 565.803 271.877 565.964 271.723 566.078C271.569 566.191 271.382 566.249 271.191 566.244L270.96 566.237C270.841 566.233 270.721 566.229 270.6 566.229C264.75 566.247 259.081 568.266 254.535 571.949C249.99 575.632 246.84 580.759 245.609 586.479C245.568 586.673 245.461 586.848 245.307 586.973C245.153 587.098 244.96 587.166 244.761 587.166H186.75C186.636 587.167 186.523 587.145 186.418 587.101C186.312 587.058 186.217 586.994 186.136 586.914C186.055 586.833 185.991 586.738 185.947 586.632C185.904 586.527 185.881 586.414 185.881 586.3C185.881 586.187 185.904 586.074 185.947 585.968C185.991 585.863 186.055 585.768 186.136 585.687C186.217 585.607 186.312 585.543 186.418 585.5C186.523 585.456 186.636 585.434 186.75 585.435H244.068C245.511 579.485 248.905 574.19 253.709 570.395C258.512 566.6 264.449 564.524 270.57 564.497C272.75 557.447 276.929 551.182 282.601 546.463C288.273 541.743 295.194 538.773 302.522 537.912C309.85 537.052 317.271 538.338 323.882 541.614C330.493 544.891 336.01 550.017 339.764 556.37C340.616 556.304 341.451 556.27 342.255 556.27C350.406 556.293 358.248 559.392 364.212 564.949C370.176 570.506 373.822 578.11 374.42 586.24C374.428 586.353 374.414 586.467 374.378 586.575C374.342 586.683 374.285 586.783 374.21 586.869C374.136 586.954 374.045 587.025 373.943 587.075C373.841 587.126 373.731 587.156 373.617 587.164C373.596 587.166 373.576 587.166 373.556 587.166Z" fill="#CBCBCB"/>
<path d="M363.253 598.27H221.243C221.129 598.27 221.016 598.248 220.911 598.205C220.806 598.161 220.71 598.097 220.629 598.017C220.548 597.937 220.484 597.841 220.441 597.736C220.397 597.631 220.375 597.518 220.375 597.404C220.375 597.29 220.397 597.177 220.441 597.072C220.484 596.966 220.548 596.871 220.629 596.79C220.71 596.71 220.806 596.646 220.911 596.603C221.016 596.56 221.129 596.537 221.243 596.538H363.253C363.483 596.538 363.703 596.629 363.865 596.791C364.028 596.954 364.119 597.174 364.119 597.404C364.119 597.633 364.028 597.854 363.865 598.016C363.703 598.178 363.483 598.27 363.253 598.27Z" fill="#CBCBCB"/>
<path d="M255.88 610.826H208.254C208.141 610.827 208.028 610.804 207.922 610.761C207.817 610.718 207.721 610.654 207.64 610.573C207.56 610.493 207.496 610.397 207.452 610.292C207.408 610.187 207.386 610.074 207.386 609.96C207.386 609.846 207.408 609.733 207.452 609.628C207.496 609.523 207.56 609.427 207.64 609.347C207.721 609.266 207.817 609.203 207.922 609.159C208.028 609.116 208.141 609.094 208.254 609.094H255.88C255.994 609.094 256.107 609.116 256.212 609.159C256.317 609.203 256.413 609.266 256.494 609.347C256.574 609.427 256.638 609.523 256.682 609.628C256.726 609.733 256.748 609.846 256.748 609.96C256.748 610.074 256.726 610.187 256.682 610.292C256.638 610.397 256.574 610.493 256.494 610.573C256.413 610.654 256.317 610.718 256.212 610.761C256.107 610.804 255.994 610.827 255.88 610.826Z" fill="#CBCBCB"/>
</g>
<path d="M501.867 49.5143C502.086 49.5141 502.297 49.4308 502.457 49.2814C502.617 49.132 502.714 48.9275 502.73 48.709C503.296 41.0159 506.746 33.8203 512.39 28.5621C518.033 23.3039 525.455 20.3709 533.168 20.3502C534.091 20.3502 535.061 20.3971 536.05 20.4897C536.216 20.5052 536.382 20.4728 536.53 20.3962C536.677 20.3197 536.8 20.2023 536.882 20.058C540.426 13.8558 545.717 8.83449 552.096 5.62067C558.474 2.40685 565.658 1.14285 572.751 1.98645C579.844 2.83005 586.531 5.74388 591.978 10.3643C597.425 14.9847 601.391 21.107 603.38 27.9673C603.433 28.1511 603.545 28.3123 603.699 28.4254C603.853 28.5385 604.041 28.5971 604.232 28.592L604.462 28.5851C604.582 28.5811 604.702 28.5768 604.822 28.5768C610.673 28.5951 616.341 30.6134 620.887 34.2967C625.433 37.9801 628.583 43.1071 629.814 48.827C629.855 49.0214 629.961 49.1957 630.116 49.3209C630.27 49.446 630.463 49.5143 630.661 49.5143H688.673C688.787 49.5146 688.9 49.4925 689.005 49.4491C689.11 49.4058 689.206 49.342 689.287 49.2616C689.367 49.1811 689.431 49.0856 689.475 48.9803C689.519 48.8751 689.541 48.7623 689.541 48.6483C689.541 48.5344 689.519 48.4216 689.475 48.3163C689.431 48.2111 689.367 48.1155 689.287 48.035C689.206 47.9546 689.11 47.8909 689.005 47.8475C688.9 47.8041 688.787 47.782 688.673 47.7824H631.354C629.911 41.8328 626.517 36.5381 621.714 32.7432C616.91 28.9482 610.974 26.8716 604.852 26.8449C602.673 19.7951 598.493 13.53 592.821 8.81061C587.149 4.09124 580.228 1.12078 572.9 0.260078C565.572 -0.600622 558.152 0.685474 551.541 3.96216C544.929 7.23884 539.412 12.3651 535.659 18.7181C534.807 18.6517 533.971 18.6183 533.168 18.6183C525.017 18.6404 517.174 21.7399 511.21 27.2968C505.246 32.8536 501.6 40.4578 501.002 48.5877C500.994 48.7011 501.009 48.815 501.045 48.9229C501.081 49.0308 501.138 49.1305 501.212 49.2163C501.287 49.3022 501.378 49.3725 501.479 49.4233C501.581 49.474 501.692 49.5043 501.805 49.5122C501.826 49.5136 501.847 49.5143 501.867 49.5143Z" fill="#CBCBCB"/>
<path d="M512.17 60.6175H654.179C654.409 60.6175 654.629 60.5263 654.792 60.3639C654.954 60.2015 655.045 59.9812 655.045 59.7515C655.045 59.5219 654.954 59.3016 654.792 59.1392C654.629 58.9768 654.409 58.8856 654.179 58.8856H512.17C511.94 58.8856 511.72 58.9768 511.557 59.1392C511.395 59.3016 511.304 59.5219 511.304 59.7515C511.304 59.9812 511.395 60.2015 511.557 60.3639C511.72 60.5263 511.94 60.6175 512.17 60.6175Z" fill="#CBCBCB"/>
<defs>
<clipPath id="clip0">
<rect width="736" height="560" fill="white" transform="translate(0 172)"/>
</clipPath>
</defs>
</svg>
