<svg width="144" height="35" viewBox="0 0 144 35" fill="none" xmlns="http://www.w3.org/2000/svg">
<path d="M14.5 4L4 8L19 13.4041L4 24.5V31.5" stroke="#FFB531" stroke-width="7" stroke-linecap="round" stroke-linejoin="round"/>
<path d="M39.814 16.348H38.068V24.25H35.512V16.348H34.378V14.278H35.512V13.774C35.512 12.55 35.86 11.65 36.556 11.074C37.252 10.498 38.302 10.228 39.706 10.264V12.388C39.094 12.376 38.668 12.478 38.428 12.694C38.188 12.91 38.068 13.3 38.068 13.864V14.278H39.814V16.348ZM42.7251 13.09C42.2811 13.09 41.9091 12.952 41.6091 12.676C41.3211 12.388 41.1771 12.034 41.1771 11.614C41.1771 11.194 41.3211 10.846 41.6091 10.57C41.9091 10.282 42.2811 10.138 42.7251 10.138C43.1691 10.138 43.5351 10.282 43.8231 10.57C44.1231 10.846 44.2731 11.194 44.2731 11.614C44.2731 12.034 44.1231 12.388 43.8231 12.676C43.5351 12.952 43.1691 13.09 42.7251 13.09ZM43.9671 14.278V24.25H41.4471V14.278H43.9671ZM51.9828 14.134C53.1708 14.134 54.1308 14.512 54.8628 15.268C55.5948 16.012 55.9608 17.056 55.9608 18.4V24.25H53.4408V18.742C53.4408 17.95 53.2428 17.344 52.8468 16.924C52.4508 16.492 51.9108 16.276 51.2268 16.276C50.5308 16.276 49.9788 16.492 49.5708 16.924C49.1748 17.344 48.9768 17.95 48.9768 18.742V24.25H46.4568V14.278H48.9768V15.52C49.3128 15.088 49.7388 14.752 50.2548 14.512C50.7828 14.26 51.3588 14.134 51.9828 14.134ZM57.7092 19.228C57.7092 18.22 57.9072 17.326 58.3032 16.546C58.7112 15.766 59.2632 15.166 59.9592 14.746C60.6552 14.326 61.4292 14.116 62.2812 14.116C62.9292 14.116 63.5472 14.26 64.1352 14.548C64.7232 14.824 65.1912 15.196 65.5392 15.664V10.93H68.0952V24.25H65.5392V22.774C65.2272 23.266 64.7892 23.662 64.2252 23.962C63.6612 24.262 63.0072 24.412 62.2632 24.412C61.4232 24.412 60.6552 24.196 59.9592 23.764C59.2632 23.332 58.7112 22.726 58.3032 21.946C57.9072 21.154 57.7092 20.248 57.7092 19.228ZM65.5572 19.264C65.5572 18.652 65.4372 18.13 65.1972 17.698C64.9572 17.254 64.6332 16.918 64.2252 16.69C63.8172 16.45 63.3792 16.33 62.9112 16.33C62.4432 16.33 62.0112 16.444 61.6152 16.672C61.2192 16.9 60.8952 17.236 60.6432 17.68C60.4032 18.112 60.2832 18.628 60.2832 19.228C60.2832 19.828 60.4032 20.356 60.6432 20.812C60.8952 21.256 61.2192 21.598 61.6152 21.838C62.0232 22.078 62.4552 22.198 62.9112 22.198C63.3792 22.198 63.8172 22.084 64.2252 21.856C64.6332 21.616 64.9572 21.28 65.1972 20.848C65.4372 20.404 65.5572 19.876 65.5572 19.264ZM69.9085 19.228C69.9085 18.22 70.1065 17.326 70.5025 16.546C70.9105 15.766 71.4565 15.166 72.1405 14.746C72.8365 14.326 73.6105 14.116 74.4625 14.116C75.2065 14.116 75.8545 14.266 76.4065 14.566C76.9705 14.866 77.4205 15.244 77.7565 15.7V14.278H80.2945V24.25H77.7565V22.792C77.4325 23.26 76.9825 23.65 76.4065 23.962C75.8425 24.262 75.1885 24.412 74.4445 24.412C73.6045 24.412 72.8365 24.196 72.1405 23.764C71.4565 23.332 70.9105 22.726 70.5025 21.946C70.1065 21.154 69.9085 20.248 69.9085 19.228ZM77.7565 19.264C77.7565 18.652 77.6365 18.13 77.3965 17.698C77.1565 17.254 76.8325 16.918 76.4245 16.69C76.0165 16.45 75.5785 16.33 75.1105 16.33C74.6425 16.33 74.2105 16.444 73.8145 16.672C73.4185 16.9 73.0945 17.236 72.8425 17.68C72.6025 18.112 72.4825 18.628 72.4825 19.228C72.4825 19.828 72.6025 20.356 72.8425 20.812C73.0945 21.256 73.4185 21.598 73.8145 21.838C74.2225 22.078 74.6545 22.198 75.1105 22.198C75.5785 22.198 76.0165 22.084 76.4245 21.856C76.8325 21.616 77.1565 21.28 77.3965 20.848C77.6365 20.404 77.7565 19.876 77.7565 19.264ZM86.5717 24.412C85.7557 24.412 85.0237 24.268 84.3757 23.98C83.7277 23.68 83.2117 23.278 82.8277 22.774C82.4557 22.27 82.2517 21.712 82.2157 21.1H84.7537C84.8017 21.484 84.9877 21.802 85.3117 22.054C85.6477 22.306 86.0617 22.432 86.5537 22.432C87.0337 22.432 87.4057 22.336 87.6697 22.144C87.9457 21.952 88.0837 21.706 88.0837 21.406C88.0837 21.082 87.9157 20.842 87.5797 20.686C87.2557 20.518 86.7337 20.338 86.0137 20.146C85.2697 19.966 84.6577 19.78 84.1777 19.588C83.7097 19.396 83.3017 19.102 82.9537 18.706C82.6177 18.31 82.4497 17.776 82.4497 17.104C82.4497 16.552 82.6057 16.048 82.9177 15.592C83.2417 15.136 83.6977 14.776 84.2857 14.512C84.8857 14.248 85.5877 14.116 86.3917 14.116C87.5797 14.116 88.5277 14.416 89.2357 15.016C89.9437 15.604 90.3337 16.402 90.4057 17.41H87.9937C87.9577 17.014 87.7897 16.702 87.4897 16.474C87.2017 16.234 86.8117 16.114 86.3197 16.114C85.8637 16.114 85.5097 16.198 85.2577 16.366C85.0177 16.534 84.8977 16.768 84.8977 17.068C84.8977 17.404 85.0657 17.662 85.4017 17.842C85.7377 18.01 86.2597 18.184 86.9677 18.364C87.6877 18.544 88.2817 18.73 88.7497 18.922C89.2177 19.114 89.6197 19.414 89.9557 19.822C90.3037 20.218 90.4837 20.746 90.4957 21.406C90.4957 21.982 90.3337 22.498 90.0097 22.954C89.6977 23.41 89.2417 23.77 88.6417 24.034C88.0537 24.286 87.3637 24.412 86.5717 24.412ZM96.3803 24.412C95.5643 24.412 94.8323 24.268 94.1843 23.98C93.5363 23.68 93.0203 23.278 92.6363 22.774C92.2643 22.27 92.0603 21.712 92.0243 21.1H94.5623C94.6103 21.484 94.7963 21.802 95.1203 22.054C95.4563 22.306 95.8703 22.432 96.3623 22.432C96.8423 22.432 97.2143 22.336 97.4783 22.144C97.7543 21.952 97.8923 21.706 97.8923 21.406C97.8923 21.082 97.7243 20.842 97.3883 20.686C97.0643 20.518 96.5423 20.338 95.8223 20.146C95.0783 19.966 94.4663 19.78 93.9863 19.588C93.5183 19.396 93.1103 19.102 92.7623 18.706C92.4263 18.31 92.2583 17.776 92.2583 17.104C92.2583 16.552 92.4143 16.048 92.7263 15.592C93.0503 15.136 93.5063 14.776 94.0943 14.512C94.6943 14.248 95.3963 14.116 96.2003 14.116C97.3883 14.116 98.3363 14.416 99.0443 15.016C99.7523 15.604 100.142 16.402 100.214 17.41H97.8023C97.7663 17.014 97.5983 16.702 97.2983 16.474C97.0103 16.234 96.6203 16.114 96.1283 16.114C95.6723 16.114 95.3183 16.198 95.0663 16.366C94.8263 16.534 94.7063 16.768 94.7063 17.068C94.7063 17.404 94.8743 17.662 95.2103 17.842C95.5463 18.01 96.0683 18.184 96.7763 18.364C97.4963 18.544 98.0903 18.73 98.5583 18.922C99.0263 19.114 99.4283 19.414 99.7643 19.822C100.112 20.218 100.292 20.746 100.304 21.406C100.304 21.982 100.142 22.498 99.8183 22.954C99.5063 23.41 99.0503 23.77 98.4503 24.034C97.8623 24.286 97.1723 24.412 96.3803 24.412ZM111.787 14.278V24.25H109.249V22.99C108.925 23.422 108.499 23.764 107.971 24.016C107.455 24.256 106.891 24.376 106.279 24.376C105.499 24.376 104.809 24.214 104.209 23.89C103.609 23.554 103.135 23.068 102.787 22.432C102.451 21.784 102.283 21.016 102.283 20.128V14.278H104.803V19.768C104.803 20.56 105.001 21.172 105.397 21.604C105.793 22.024 106.333 22.234 107.017 22.234C107.713 22.234 108.259 22.024 108.655 21.604C109.051 21.172 109.249 20.56 109.249 19.768V14.278H111.787ZM116.793 15.826C117.117 15.298 117.537 14.884 118.053 14.584C118.581 14.284 119.181 14.134 119.853 14.134V16.78H119.187C118.395 16.78 117.795 16.966 117.387 17.338C116.991 17.71 116.793 18.358 116.793 19.282V24.25H114.273V14.278H116.793V15.826ZM130.821 19.048C130.821 19.408 130.797 19.732 130.749 20.02H123.459C123.519 20.74 123.771 21.304 124.215 21.712C124.659 22.12 125.205 22.324 125.853 22.324C126.789 22.324 127.455 21.922 127.851 21.118H130.569C130.281 22.078 129.729 22.87 128.913 23.494C128.097 24.106 127.095 24.412 125.907 24.412C124.947 24.412 124.083 24.202 123.315 23.782C122.559 23.35 121.965 22.744 121.533 21.964C121.113 21.184 120.903 20.284 120.903 19.264C120.903 18.232 121.113 17.326 121.533 16.546C121.953 15.766 122.541 15.166 123.297 14.746C124.053 14.326 124.923 14.116 125.907 14.116C126.855 14.116 127.701 14.32 128.445 14.728C129.201 15.136 129.783 15.718 130.191 16.474C130.611 17.218 130.821 18.076 130.821 19.048ZM128.211 18.328C128.199 17.68 127.965 17.164 127.509 16.78C127.053 16.384 126.495 16.186 125.835 16.186C125.211 16.186 124.683 16.378 124.251 16.762C123.831 17.134 123.573 17.656 123.477 18.328H128.211ZM132.012 19.228C132.012 18.22 132.21 17.326 132.606 16.546C133.014 15.766 133.566 15.166 134.262 14.746C134.958 14.326 135.732 14.116 136.584 14.116C137.232 14.116 137.85 14.26 138.438 14.548C139.026 14.824 139.494 15.196 139.842 15.664V10.93H142.398V24.25H139.842V22.774C139.53 23.266 139.092 23.662 138.528 23.962C137.964 24.262 137.31 24.412 136.566 24.412C135.726 24.412 134.958 24.196 134.262 23.764C133.566 23.332 133.014 22.726 132.606 21.946C132.21 21.154 132.012 20.248 132.012 19.228ZM139.86 19.264C139.86 18.652 139.74 18.13 139.5 17.698C139.26 17.254 138.936 16.918 138.528 16.69C138.12 16.45 137.682 16.33 137.214 16.33C136.746 16.33 136.314 16.444 135.918 16.672C135.522 16.9 135.198 17.236 134.946 17.68C134.706 18.112 134.586 18.628 134.586 19.228C134.586 19.828 134.706 20.356 134.946 20.812C135.198 21.256 135.522 21.598 135.918 21.838C136.326 22.078 136.758 22.198 137.214 22.198C137.682 22.198 138.12 22.084 138.528 21.856C138.936 21.616 139.26 21.28 139.5 20.848C139.74 20.404 139.86 19.876 139.86 19.264Z" fill="#1B5060"/>
</svg>
