<svg width="630" height="487" viewBox="0 0 630 487" fill="none" xmlns="http://www.w3.org/2000/svg">
<path d="M57.9988 508.515L59.1615 509.067C63.1088 500.894 67.9292 493.172 73.5387 486.037L72.5237 485.247C66.859 492.458 61.9891 500.259 57.9988 508.515ZM91.0894 465.075L91.9695 466.013C98.2729 460.151 104.9 454.648 111.82 449.529C112.205 449.24 112.597 448.95 112.989 448.661L112.225 447.627C111.833 447.916 111.441 448.205 111.049 448.501C104.093 453.65 97.429 459.183 91.0894 465.075ZM135.05 432.46L135.711 433.558C143.202 429.036 151.238 424.59 159.589 420.344L159.005 419.194C150.628 423.46 142.566 427.924 135.05 432.46ZM183.789 407.547L184.297 408.723C192.41 405.196 200.935 401.753 209.62 398.496L209.171 397.294C200.46 400.558 191.922 404.007 183.789 407.547ZM235.015 388.269L235.407 389.489C237.681 388.75 239.961 388.024 242.268 387.299C248.55 385.339 255.039 383.412 261.559 381.587L261.212 380.348C254.679 382.178 248.178 384.106 241.882 386.078C239.578 386.799 237.289 387.53 235.015 388.269ZM295.742 371.527C293.05 372.144 290.339 372.786 287.693 373.429L287.994 374.675C290.641 374.039 293.346 373.397 296.037 372.774C298.588 372.183 301.125 371.604 303.586 371.071C307.254 370.255 310.98 369.452 314.654 368.694L314.398 367.435C310.71 368.2 306.984 368.996 303.309 369.812C300.849 370.352 298.299 370.93 295.742 371.527ZM341.276 362.309L341.501 363.574C350.347 362.026 359.43 360.574 368.488 359.264L368.302 357.992C359.231 359.309 350.141 360.76 341.276 362.309ZM395.444 354.452L395.592 355.73C404.547 354.69 417.026 351.094 426.116 350.278L426 349C416.903 349.816 404.412 353.411 395.444 354.452Z" fill="white"/>
<path fill-rule="evenodd" clip-rule="evenodd" d="M168.513 367.742C129.563 382.331 96.2994 399.631 70.3203 418.948C30.6771 448.428 8 482.618 8 519.074L149.15 519.074C149.15 493.571 165.018 469.647 192.757 449.02C249.52 406.807 356.006 378.387 478 378.387V318C407.187 318 340.03 324.7 279.804 336.7C273.913 337.87 268.09 339.095 262.337 340.375C259.805 340.928 257.285 341.497 254.775 342.084C246.964 343.889 239.285 345.789 231.739 347.782C221.197 350.557 210.937 353.504 200.961 356.622C195.057 358.472 189.262 360.373 183.577 362.326C183.222 362.45 182.867 362.573 182.513 362.696C182.24 362.791 181.967 362.886 181.695 362.982C177.23 364.53 172.836 366.117 168.513 367.742Z" fill="url(#paint0_linear)"/>
<path d="M231.434 487.756C231.434 487.756 241.091 463.994 212.122 446.173L231.434 487.756Z" fill="#E6E6E6"/>
<path d="M243.31 487.324C243.31 487.324 246.255 470.388 269.054 470.533L243.31 487.324Z" fill="#E6E6E6"/>
<path d="M25.5137 487.756C25.5137 487.756 38.2711 456.363 -6.10352e-05 432.819L25.5137 487.756Z" fill="#E6E6E6"/>
<path d="M41.2031 487.185C41.2031 487.185 45.0945 464.81 75.2148 465.002L41.2031 487.185Z" fill="#E6E6E6"/>
<path d="M264.117 135.927L276.715 129.237L275.773 128.736L263.174 135.427L264.117 135.927Z" fill="#CBCBCB"/>
<path d="M275.106 135.927L276.048 135.427L263.45 128.736L262.507 129.237L275.106 135.927Z" fill="#CBCBCB"/>
<path d="M295.086 123.369L302.17 119.74L301.562 118.554L294.478 122.183L295.086 123.369ZM309.254 116.111L316.338 112.482L315.73 111.296L308.646 114.925L309.254 116.111ZM323.422 108.853L330.506 105.224L329.898 104.038L322.814 107.667L323.422 108.853ZM337.589 101.595L344.674 97.9663L344.066 96.7801L336.982 100.409L337.589 101.595ZM351.757 94.3373L358.841 90.7084L358.233 89.5222L351.149 93.1511L351.757 94.3373Z" fill="#CBCBCB"/>
<path d="M287.394 125.812L288.002 126.998L284.443 128.821L283.835 127.635L287.394 125.812Z" fill="#CBCBCB"/>
<path d="M556.121 173.285C556.121 173.701 556.134 174.114 556.161 174.523C556.312 176.884 556.909 179.195 557.919 181.334C557.927 181.352 557.936 181.369 557.944 181.386C557.991 181.485 558.039 181.584 558.089 181.682C558.389 182.287 558.723 182.875 559.087 183.444C560.753 186.054 563.037 188.214 565.736 189.732C568.435 191.251 571.467 192.081 574.563 192.15L574.376 202.882L571.942 201.6L571.507 202.426L574.358 203.927L574.01 223.858L574.006 224.125L575.888 224.543L575.884 224.276L575.291 192.151C577.784 192.116 580.244 191.585 582.53 190.591C584.815 189.597 586.88 188.159 588.605 186.36C588.724 186.238 588.842 186.111 588.956 185.986L588.97 185.971C590.407 184.404 591.569 182.606 592.408 180.653C592.389 180.673 592.37 180.693 592.352 180.714C594.247 176.284 594.375 171.297 592.711 166.775C591.046 162.253 587.715 158.539 583.4 156.393C583.335 156.36 583.268 156.329 583.203 156.296C578.934 154.241 574.049 153.864 569.515 155.24C564.981 156.616 561.13 159.644 558.725 163.725C558.61 163.918 558.499 164.115 558.392 164.314C556.898 167.068 556.117 170.152 556.121 173.285Z" fill="#E5E5E5"/>
<path d="M558.661 181.396C544.998 181.396 533.921 170.323 533.921 156.663C533.921 143.003 544.998 131.93 558.661 131.93C572.325 131.93 583.402 143.003 583.402 156.663C583.402 170.323 572.325 181.396 558.661 181.396Z" fill="#E5E5E5"/>
<path opacity="0.2" d="M576.929 140.143C579.237 145.54 579.55 151.581 577.812 157.187C576.075 162.793 572.4 167.599 567.444 170.746C562.488 173.892 556.575 175.175 550.761 174.364C544.946 173.554 539.609 170.702 535.704 166.32C537.114 169.617 539.224 172.568 541.888 174.969C544.552 177.37 547.706 179.164 551.132 180.225C554.558 181.286 558.174 181.59 561.729 181.116C565.284 180.641 568.694 179.4 571.721 177.478C574.749 175.555 577.322 172.998 579.263 169.982C581.204 166.967 582.465 163.566 582.961 160.014C583.456 156.463 583.173 152.846 582.132 149.415C581.09 145.984 579.315 142.82 576.929 140.143Z" fill="black"/>
<path d="M557.323 225.565L559.85 224.857L559.844 224.585L559.087 183.444L559.049 181.393L559.049 181.333L558.916 174.145L558.725 163.727V163.725L558.594 156.663H558.525L558.391 164.314L558.218 174.272L558.094 181.337V181.39L558.089 181.681V181.683L557.848 195.456L557.824 196.824L557.328 225.291L557.323 225.565Z" fill="#3F3D56"/>
<path d="M554.659 193.776L558.748 195.929L558.178 197.011L554.089 194.858L554.659 193.776Z" fill="#3F3D56"/>
<path d="M375.101 144.873L375.097 144.875C363.364 150.939 352.27 158.164 341.98 166.442C332.612 174.015 324.214 182.713 316.973 192.338C310.35 201.238 303.777 211.518 302.131 222.566L302.129 222.577C301.265 227.565 301.932 232.698 304.042 237.3C306.377 242.115 310.531 245.84 315.177 248.495C325.345 254.306 337.715 255.97 349.338 256.56C378.63 258.045 408.12 252.683 436.773 246.878C441.475 245.926 446.176 244.951 450.879 243.975C475.659 238.835 500.501 233.682 525.816 231.756C540.745 230.503 555.762 230.708 570.652 232.366L570.656 232.367C583.663 233.921 596.974 236.898 608.705 243.027C618.061 247.915 627.805 255.951 628.307 267.577C628.804 279.069 620.813 289.099 612.543 295.899C602.286 304.333 589.487 309.464 577.039 313.456C563.576 317.773 549.734 320.764 535.96 323.739C535.742 323.786 535.642 323.89 535.592 323.989C535.535 324.104 535.519 324.267 535.568 324.443C535.667 324.802 535.962 325.036 536.353 324.951C543.186 323.475 550.012 321.993 556.8 320.354C570.188 317.12 583.529 313.325 595.993 307.477C606.941 302.34 617.415 295.336 624.12 285.153C629.686 276.701 631.633 266.213 626.579 257.153C621.302 247.696 610.858 241.982 600.946 238.178C588.118 233.256 574.333 231.092 560.637 230.168C545.471 229.268 530.255 229.708 515.167 231.482L515.163 231.483C493.533 233.852 472.267 238.258 450.972 242.671C442.61 244.404 434.243 246.137 425.848 247.749C410.651 250.795 395.305 253.042 379.873 254.481L379.869 254.481C365.798 255.677 351.327 256.26 337.265 254.117C331.662 253.263 325.396 251.927 319.75 249.477C314.103 247.026 309.042 243.446 305.902 238.084C302.688 232.596 302.468 226.557 303.743 220.7C305.017 214.849 307.791 209.143 310.614 204.272C323.452 182.118 343.441 164.698 365.253 151.785C369.34 149.365 373.603 147.162 377.857 144.964C379.818 143.951 381.778 142.938 383.717 141.905C389.879 138.626 395.867 135.132 401.205 130.724C405.846 126.891 410.145 122.042 411.868 116.262C412.576 113.838 412.713 111.283 412.27 108.798C411.826 106.311 410.813 103.961 409.31 101.931L409.305 101.923C402.028 91.7097 388.429 87.2805 376.557 84.6427C364.517 81.9678 352.128 80.502 339.789 79.3135L352.386 82.0515C352.813 82.1046 353.24 82.1577 353.669 82.2109C367.473 83.9253 382.132 85.7457 394.805 92.0409C400.222 94.7317 405.79 98.4472 409.035 103.821C412.285 109.203 411.694 115.246 408.611 120.488C405.069 126.512 399.364 130.951 393.646 134.609C388.688 137.78 383.465 140.505 378.27 143.215C377.211 143.767 376.154 144.319 375.101 144.873Z" stroke="black"/>
<path d="M257.762 3.82428L253.045 0.0528188C256.709 -0.35134 258.215 1.64652 258.831 3.22783C261.694 2.03947 264.81 3.59687 264.81 3.59687L255.373 7.02203C255.849 5.75072 256.678 4.64145 257.762 3.82428Z" fill="#3F3D56"/>
<path d="M280.653 15.7642L275.936 11.9928C279.601 11.5886 281.106 13.5864 281.723 15.1678C284.585 13.9794 287.702 15.5368 287.702 15.5368L278.264 18.962C278.74 17.6907 279.569 16.5814 280.653 15.7642Z" fill="#3F3D56"/>
<path d="M257.762 34.6688L253.045 30.8973C256.709 30.4931 258.215 32.491 258.831 34.0723C261.694 32.8839 264.81 34.4414 264.81 34.4414L255.373 37.8665C255.849 36.5952 256.678 35.4859 257.762 34.6688Z" fill="#3F3D56"/>
<path d="M328.475 40.2565C320.626 40.2565 314.263 33.8957 314.263 26.0494C314.263 18.203 320.626 11.8423 328.475 11.8423C336.323 11.8423 342.686 18.203 342.686 26.0494C342.686 33.8957 336.323 40.2565 328.475 40.2565Z" fill="#FF6583"/>
<path d="M283.911 69.828H353.627C353.714 69.8291 353.802 69.8222 353.888 69.8073L320.914 12.7138C320.713 12.3581 320.421 12.0622 320.068 11.8563C319.715 11.6505 319.314 11.542 318.905 11.542C318.496 11.542 318.095 11.6505 317.742 11.8563C317.389 12.0622 317.097 12.3581 316.896 12.7138L294.768 51.0267L293.708 52.8597L283.911 69.828Z" fill="#FFB531"/>
<path d="M245.096 69.8286H305.393L293.71 52.8617L292.869 51.639L277.643 29.5281C277.374 29.1898 277.037 28.912 276.653 28.7126C276.269 28.5133 275.848 28.397 275.416 28.3712C274.985 28.3454 274.552 28.4108 274.148 28.5631C273.743 28.7153 273.375 28.9511 273.067 29.2549C272.988 29.3413 272.915 29.4325 272.848 29.5281L245.096 69.8286Z" fill="#FFB531"/>
<path d="M344.56 200.774C337.952 204.076 333.929 208.436 333.929 213.22C333.929 223.523 352.579 231.876 375.586 231.876C385.588 231.876 394.764 230.296 401.945 227.664C394.318 231.476 383.247 233.875 370.92 233.875C347.914 233.875 329.263 225.522 329.263 215.218C329.263 209.394 335.225 204.195 344.56 200.774Z" fill="#F1F1F1"/>
<path d="M350.185 203.891C345.53 206.218 342.695 209.29 342.695 212.66C342.695 219.919 355.835 225.804 372.044 225.804C378.358 225.886 384.64 224.882 390.615 222.837C385.241 225.522 377.441 227.212 368.757 227.212C352.548 227.212 339.408 221.327 339.408 214.068C339.408 209.965 343.608 206.302 350.185 203.891Z" fill="#F1F1F1"/>
<path d="M415.599 202.559C415.599 202.559 414.576 217.508 385.25 217.508C355.924 217.508 347.168 202.559 347.168 202.559H415.599Z" fill="#3F3D56"/>
<path d="M373.974 163.336C378.207 160.121 383.521 158.668 388.803 159.281C384.083 160.419 379.915 163.182 377.03 167.085C374.145 170.989 372.727 175.783 373.025 180.627C373.324 185.472 375.32 190.056 378.662 193.576C382.005 197.096 386.48 199.327 391.304 199.877C386.69 200.99 381.833 200.481 377.55 198.436C373.267 196.391 369.819 192.934 367.786 188.647C365.752 184.359 365.257 179.502 366.384 174.893C367.511 170.284 370.191 166.203 373.974 163.336Z" fill="#3F3D56"/>
<path d="M383.584 156.583H385.583V204.165H383.584V156.583Z" fill="#3F3D56"/>
<path d="M252.177 121.23L252.187 121.212L252.214 120.049L245.95 110.957L252.207 119.18L252.229 119.425L252.444 110.132L247.033 100.705L252.459 108.499L252.402 89.246L252.403 89.1819L252.404 89.2449L252.763 104.419L257.695 98.2554L252.779 105.726L252.887 114.039L257.425 105.926L252.904 115.261L252.964 119.883L253.13 132.689L253.142 133.646C252.724 133.649 252.31 133.642 251.901 133.625L252.185 121.325L252.177 121.23Z" fill="#CBCBCB"/>
<path d="M282.169 125.228L282.18 125.21L282.207 124.048L275.943 114.955L282.2 123.178L282.222 123.423L282.436 114.13L277.026 104.703L282.452 112.497L282.395 93.244L282.395 93.1799L282.397 93.243L282.756 108.417L287.687 102.253L282.772 109.724L282.88 118.037L287.418 109.924L282.897 119.259L282.957 123.881L283.122 136.687L283.134 137.644C282.717 137.647 282.303 137.64 281.894 137.623L282.177 125.323L282.169 125.228Z" fill="#CBCBCB"/>
<path d="M267.506 112.568L267.517 112.55L267.544 111.388L261.28 102.295L267.537 110.518L267.559 110.763L267.773 101.47L262.363 92.0435L267.788 99.8374L267.732 80.5841L267.732 80.52L267.734 80.583L268.093 95.7573L273.024 89.5935L268.109 97.0645L268.217 105.377L272.754 97.2643L268.233 106.599L268.294 111.221L268.459 124.027L268.471 124.984C268.053 124.987 267.64 124.98 267.23 124.963L267.514 112.663L267.506 112.568Z" fill="#CBCBCB"/>
<path d="M515.218 333.822C510.801 333.822 507.22 330.242 507.22 325.826C507.22 321.41 510.801 317.831 515.218 317.831C519.635 317.831 523.216 321.41 523.216 325.826C523.216 330.242 519.635 333.822 515.218 333.822Z" fill="#FFB531"/>
<path d="M88.3101 473.421L95.7146 476.171L109.85 448.928L98.9213 444.869L88.3101 473.421Z" fill="#FFB7B7"/>
<path d="M83.755 479.895L107.63 488.763L107.742 488.461C108.658 485.997 108.557 483.27 107.462 480.881C106.367 478.491 104.367 476.634 101.903 475.719L101.902 475.718L87.3198 470.302L83.755 479.895Z" fill="#2F2E41"/>
<path d="M161.179 481.108L169.078 481.107L172.836 450.648L161.178 450.649L161.179 481.108Z" fill="#FFB7B7"/>
<path d="M159.809 488.762L185.279 488.761V488.439C185.279 485.811 184.234 483.29 182.375 481.432C180.516 479.573 177.994 478.529 175.365 478.529H175.365L159.808 478.529L159.809 488.762Z" fill="#2F2E41"/>
<path d="M125.015 269.862L127.592 264.709L149.498 275.659L148.854 280.168L153.042 285.643C153.042 285.643 160.129 289.508 158.841 302.39L157.552 314.628L155.941 330.409L167.217 369.378L173.015 420.908L177.203 462.453L156.908 461.487L138.223 393.855L105.363 466.64L82.8127 460.843L113.739 388.702L117.605 358.428C117.605 358.428 115.028 342.325 127.27 331.375L125.337 325.578V318.435L118.894 284.355L125.015 269.862Z" fill="#2F2E41"/>
<path opacity="0.2" d="M124.413 343.511L138.587 393.752L137.859 393.957L123.684 343.716L124.413 343.511Z" fill="black"/>
<path d="M125.659 330.409H157.23V333.629H125.659V330.409Z" fill="#3F3D56"/>
<path d="M157.23 335.562C156.518 335.562 155.941 334.12 155.941 332.341C155.941 330.563 156.518 329.121 157.23 329.121C157.942 329.121 158.519 330.563 158.519 332.341C158.519 334.12 157.942 335.562 157.23 335.562Z" fill="#3F3D56"/>
<path d="M134.755 261.532C126.432 256.983 123.373 246.551 127.923 238.231C132.473 229.911 142.908 226.853 151.23 231.401C159.553 235.949 162.612 246.381 158.062 254.702C153.513 263.022 143.078 266.08 134.755 261.532Z" fill="#FFB7B7"/>
<path d="M116.712 240.337C108.321 240.337 101.518 233.537 101.518 225.148C101.518 216.759 108.321 209.959 116.712 209.959C125.103 209.959 131.906 216.759 131.906 225.148C131.906 233.537 125.103 240.337 116.712 240.337Z" fill="#2F2E41"/>
<path d="M97.4311 223.521C96.8319 225.534 96.6565 227.648 96.9161 229.732C97.1756 231.816 97.8646 233.823 98.9393 235.627C100.014 237.431 101.451 238.993 103.16 240.214C104.869 241.435 106.813 242.288 108.868 242.72C110.923 243.152 113.046 243.153 115.102 242.724C117.158 242.294 119.103 241.443 120.813 240.224C122.523 239.005 123.963 237.445 125.039 235.643C126.116 233.84 126.808 231.833 127.07 229.75C125.981 233.404 123.558 236.515 120.281 238.466C117.004 240.416 113.113 241.064 109.381 240.279C105.649 239.495 102.348 237.336 100.135 234.232C97.9209 231.127 96.9558 227.304 97.4311 223.521Z" fill="#2F2E41"/>
<path d="M157.455 241.7C157.9 245.626 157.039 249.589 155.002 252.976C152.966 256.363 149.87 258.984 146.193 260.433C142.515 261.882 138.463 262.078 134.663 260.991C130.863 259.903 127.528 257.594 125.174 254.419C122.82 251.245 121.58 247.383 121.644 243.432C121.709 239.481 123.075 235.662 125.531 232.566C127.987 229.47 131.396 227.27 135.23 226.308C139.063 225.345 143.107 225.674 146.735 227.242C149.736 224.823 153.456 225.573 156.48 228.126C159.9 231.012 160.915 232.995 163.567 237.742C160.959 238.109 160.063 241.333 157.455 241.7Z" fill="#2F2E41"/>
<path d="M94.325 293.333C94.5172 298.421 94.8981 308.436 94.8981 308.948C94.8981 309.486 102.493 325.207 105.774 331.974V331.977C106.008 332.454 106.217 332.886 106.402 333.267C106.656 333.792 107.055 334.233 107.552 334.539C108.049 334.844 108.623 335 109.206 334.989L123.545 334.732C124.334 334.719 125.086 334.401 125.646 333.846C126.205 333.291 126.529 332.542 126.549 331.754L128.148 268.687C128.153 268.48 128.117 268.273 128.041 268.079C127.965 267.885 127.851 267.709 127.706 267.56C127.561 267.411 127.387 267.292 127.195 267.211C127.004 267.13 126.798 267.089 126.59 267.089H108.098C107.317 267.089 106.552 267.309 105.89 267.724C105.228 268.139 104.697 268.732 104.357 269.435L95.4817 287.792C94.6495 289.517 94.2524 291.419 94.325 293.333V293.333Z" fill="#FFB531"/>
<path d="M126.798 327.426C130.478 325.197 133.784 322.404 136.596 319.148C143.129 311.802 147.103 302.535 147.92 292.739C148.649 284.358 146.985 278.128 142.975 274.222C137.878 269.257 130.94 269.978 130.647 270.012L130.337 270.047L125.636 274.023L126.967 275.594L131.172 272.037C132.46 271.972 137.716 271.958 141.555 275.713C145.089 279.168 146.54 284.837 145.868 292.561C145.091 301.888 141.317 310.714 135.11 317.72C132.432 320.817 129.294 323.482 125.804 325.623L126.798 327.426Z" fill="#FFB531"/>
<path d="M100.115 303.466L125.17 308.61L125.031 309.282L99.977 304.138L100.115 303.466Z" fill="#3F3D56"/>
<path d="M116.628 267.075L117.314 267.103L115.687 306.957L115.001 306.929L116.628 267.075Z" fill="#3F3D56"/>
<path d="M94.3251 293.333C94.5173 298.421 94.8982 308.436 94.8982 308.948C94.8982 309.486 102.493 325.207 105.774 331.974L99.6585 296.472C99.4219 295.106 98.8267 293.828 97.9336 292.767C97.0405 291.707 95.8816 290.903 94.5756 290.437C94.3701 291.388 94.2859 292.361 94.3251 293.333Z" fill="#3F3D56"/>
<path d="M131.901 367.734C131.359 367.036 130.977 366.228 130.782 365.367C130.587 364.506 130.582 363.613 130.77 362.75C130.957 361.887 131.331 361.076 131.866 360.373C132.401 359.67 133.084 359.094 133.866 358.683L132.623 344.937L140.795 342.145L142.277 361.581C142.88 362.94 142.963 364.473 142.51 365.889C142.058 367.306 141.102 368.507 139.823 369.265C138.544 370.023 137.031 370.286 135.571 370.004C134.111 369.722 132.805 368.914 131.901 367.734Z" fill="#FFB7B7"/>
<path d="M130.833 354.433L145.313 353.908L144.7 284.098C144.711 282.123 144.1 280.194 142.954 278.585C141.808 276.975 140.185 275.767 138.315 275.129C136.567 274.549 134.678 274.547 132.929 275.125C130.946 275.796 129.242 277.109 128.088 278.855C126.933 280.602 126.393 282.683 126.553 284.77L130.833 354.433Z" fill="#CBCBCB"/>
<defs>
<linearGradient id="paint0_linear" x1="8.00001" y1="512.5" x2="380" y2="366.5" gradientUnits="userSpaceOnUse">
<stop stop-color="#FFB531"/>
<stop offset="1" stop-color="#FFB531" stop-opacity="0"/>
</linearGradient>
</defs>
</svg>
